<svg xmlns="http://www.w3.org/2000/svg" width="415.32" height="266.664" viewBox="0 0 415.32 266.664">
  <g id="Group_4" data-name="Group 4" transform="matrix(0.995, 0.105, -0.105, 0.995, -380.884, -217.738)">
    <text id="Mobile_Web_Development" data-name="Mobile &amp;
Web 
Development" transform="matrix(0.995, 0.105, -0.105, 0.995, 437.5, 225.5)" fill="#2b2c2f" stroke="#2e3034" stroke-width="2" font-size="53" font-family="Gilroy-ExtraBold, Gilroy" font-weight="800" letter-spacing="0.035em"><tspan x="0" y="0">MOBILE &amp;</tspan><tspan x="0" y="61">WEB </tspan><tspan x="0" y="122">DEVELOPMENT</tspan></text>
    <rect id="Rectangle_4" data-name="Rectangle 4" width="243.872" height="17" transform="matrix(0.995, 0.105, -0.105, 0.995, 571.03, 261.313)" fill="#2e3034"/>
    <rect id="Rectangle_5" data-name="Rectangle 5" width="243.07" height="9.781" transform="matrix(0.995, 0.105, -0.105, 0.995, 569.03, 283.996)" fill="#2e3034"/>
    <rect id="Rectangle_6" data-name="Rectangle 6" width="242" height="5" transform="matrix(0.995, 0.105, -0.105, 0.995, 566.925, 299.991)" fill="#2e3034"/>
    <path id="Subtraction_4" data-name="Subtraction 4" d="M-926.795-165.686a28.322,28.322,0,0,1-11.094-2.24,28.405,28.405,0,0,1-9.059-6.108,28.406,28.406,0,0,1-6.108-9.059,28.321,28.321,0,0,1-2.24-11.094,28.319,28.319,0,0,1,2.24-11.093,28.4,28.4,0,0,1,6.108-9.059,28.405,28.405,0,0,1,9.059-6.108,28.322,28.322,0,0,1,11.094-2.24,28.322,28.322,0,0,1,11.094,2.24,28.406,28.406,0,0,1,9.059,6.108,28.4,28.4,0,0,1,6.108,9.059,28.319,28.319,0,0,1,2.24,11.093,28.321,28.321,0,0,1-2.24,11.094,28.407,28.407,0,0,1-6.108,9.059,28.407,28.407,0,0,1-9.059,6.108A28.322,28.322,0,0,1-926.795-165.686Zm3.8-40.736h0l-11.363,22.3,3.262,1.4,11.393-22.3-3.291-1.4Zm4.032,4.979-.483,4.595,8.022,4.04-8.687,2.285-.482,4.594,14.037-4.406.408-3.879-12.814-7.229Zm-14.531-1.527-14.037,4.406-.408,3.879,12.814,7.229.483-4.594-8.022-4.041,8.687-2.284.482-4.594Z" transform="translate(1691.31 434.884)" fill="#2e3034"/>
  </g>
</svg>
