<svg id="svg" version="1.1" xmlns="http://www.w3.org/2000/svg" xmlns:xlink="http://www.w3.org/1999/xlink" width="400" height="293.5593220338983" viewBox="0, 0, 400,293.5593220338983"><g id="svgg"><path id="path0" d="M272.952 32.552 C 273.045 32.703,272.958 32.821,272.757 32.813 C 270.675 32.738,269.025 32.939,269.090 33.260 C 269.143 33.526,268.689 33.610,267.448 33.565 C 265.895 33.508,265.770 33.548,266.126 33.979 C 266.484 34.412,266.459 34.418,265.850 34.041 C 265.341 33.727,265.128 33.711,264.962 33.977 C 264.842 34.170,264.086 34.358,263.282 34.396 C 262.479 34.434,261.724 34.607,261.605 34.780 C 261.465 34.985,261.388 34.955,261.385 34.692 C 261.382 34.399,261.278 34.374,261.006 34.600 C 260.800 34.771,260.304 34.956,259.905 35.011 C 259.505 35.065,258.979 35.235,258.737 35.388 C 258.495 35.540,258.016 35.628,257.673 35.584 C 257.322 35.539,256.974 35.703,256.875 35.960 C 256.779 36.212,256.365 36.417,255.956 36.417 C 255.547 36.417,255.213 36.549,255.213 36.711 C 255.213 36.872,254.970 37.004,254.673 37.004 C 254.371 37.004,253.973 37.354,253.771 37.797 C 253.503 38.386,253.348 38.489,253.169 38.198 C 252.982 37.896,252.850 37.950,252.591 38.433 C 252.244 39.081,250.514 39.358,250.514 38.767 C 250.514 38.599,249.633 38.473,248.458 38.473 C 247.327 38.473,246.402 38.355,246.402 38.211 C 246.402 37.834,245.454 37.523,245.251 37.833 C 245.157 37.977,244.449 38.164,243.678 38.248 C 242.427 38.386,242.331 38.357,242.797 37.983 C 243.226 37.638,243.158 37.641,242.417 37.998 C 241.921 38.238,240.765 38.475,239.847 38.525 C 238.930 38.575,238.179 38.693,238.179 38.786 C 238.179 38.932,236.614 39.089,234.454 39.157 C 234.101 39.168,233.878 39.286,233.960 39.417 C 234.041 39.549,234.252 39.569,234.427 39.460 C 234.602 39.352,234.662 39.398,234.561 39.563 C 234.456 39.732,233.611 39.818,232.621 39.761 C 231.357 39.688,230.745 39.781,230.432 40.094 C 230.193 40.333,229.471 40.529,228.827 40.529 C 228.182 40.529,227.611 40.658,227.558 40.816 C 227.504 40.974,226.601 41.140,225.551 41.183 C 224.501 41.227,223.560 41.374,223.461 41.510 C 223.361 41.646,222.370 41.760,221.258 41.764 C 220.146 41.767,219.060 41.912,218.845 42.086 C 218.630 42.260,217.936 42.372,217.303 42.335 C 216.375 42.280,216.148 42.369,216.130 42.793 C 216.116 43.101,216.045 43.166,215.958 42.952 C 215.776 42.501,214.773 42.464,214.627 42.903 C 214.569 43.078,213.896 43.221,213.132 43.221 C 212.365 43.221,211.818 43.341,211.909 43.490 C 212.001 43.638,211.862 43.759,211.601 43.759 C 211.330 43.759,211.211 43.620,211.325 43.436 C 211.468 43.205,211.350 43.207,210.912 43.441 C 210.575 43.622,209.600 43.783,208.747 43.799 C 207.894 43.815,207.032 43.959,206.832 44.120 C 206.632 44.281,205.885 44.420,205.172 44.429 C 204.218 44.442,203.915 44.550,204.025 44.837 C 204.107 45.052,204.042 45.228,203.881 45.228 C 203.719 45.228,203.512 45.032,203.420 44.792 C 203.320 44.532,203.060 44.430,202.777 44.539 C 202.395 44.686,202.378 44.771,202.692 44.970 C 202.931 45.122,202.390 45.220,201.307 45.223 C 200.330 45.226,199.399 45.358,199.239 45.518 C 199.079 45.678,198.333 45.848,197.580 45.895 C 196.828 45.942,196.117 46.076,196.001 46.192 C 195.657 46.536,195.249 46.431,195.479 46.058 C 195.596 45.868,195.412 45.910,195.070 46.149 C 194.716 46.397,193.927 46.558,193.239 46.523 C 192.428 46.482,191.977 46.597,191.872 46.872 C 191.785 47.098,191.389 47.283,190.992 47.283 C 190.595 47.283,189.998 47.429,189.666 47.606 C 189.227 47.841,189.117 47.841,189.262 47.606 C 189.372 47.429,189.322 47.283,189.151 47.283 C 188.980 47.283,188.840 47.416,188.840 47.577 C 188.840 47.739,188.571 47.871,188.243 47.871 C 187.915 47.871,187.574 48.061,187.485 48.293 C 187.396 48.525,187.137 48.643,186.909 48.556 C 186.682 48.469,186.414 48.609,186.315 48.868 C 186.215 49.127,185.942 49.339,185.707 49.339 C 185.473 49.339,185.363 49.471,185.463 49.633 C 185.565 49.799,185.319 49.927,184.893 49.927 C 184.479 49.927,184.141 50.059,184.141 50.220 C 184.141 50.382,183.943 50.514,183.700 50.514 C 183.458 50.514,183.260 50.389,183.260 50.237 C 183.260 49.851,172.323 49.860,172.084 50.246 C 171.983 50.409,171.083 50.560,170.084 50.580 C 168.977 50.603,168.142 50.769,167.945 51.006 C 167.768 51.220,167.055 51.395,166.361 51.395 C 165.668 51.395,165.055 51.531,164.999 51.698 C 164.944 51.865,163.974 52.016,162.846 52.033 C 161.717 52.050,160.704 52.203,160.594 52.373 C 160.485 52.543,159.789 52.650,159.048 52.612 C 158.094 52.563,157.723 52.650,157.778 52.910 C 157.830 53.155,157.512 53.266,156.828 53.241 C 155.345 53.188,154.423 53.417,154.649 53.782 C 154.770 53.979,154.596 53.964,154.185 53.744 C 153.749 53.511,153.594 53.501,153.726 53.715 C 153.863 53.936,153.382 54.038,152.205 54.038 C 151.259 54.038,150.357 54.166,150.201 54.321 C 150.046 54.477,149.094 54.637,148.087 54.677 C 147.025 54.719,146.256 54.881,146.256 55.064 C 146.256 55.254,145.672 55.356,144.787 55.322 C 143.686 55.279,143.248 55.386,143.034 55.753 C 142.867 56.040,142.745 56.089,142.740 55.874 C 142.735 55.672,142.591 55.507,142.420 55.507 C 142.249 55.507,142.191 55.639,142.291 55.800 C 142.403 55.981,141.896 56.094,140.969 56.094 C 140.142 56.094,139.531 56.200,139.611 56.329 C 139.765 56.577,139.522 56.608,136.711 56.704 C 135.742 56.737,134.816 56.865,134.655 56.988 C 134.493 57.111,133.965 57.257,133.480 57.313 C 132.996 57.368,132.502 57.546,132.383 57.708 C 132.249 57.892,132.166 57.864,132.163 57.636 C 132.161 57.434,132.026 57.269,131.865 57.269 C 131.703 57.269,131.604 57.429,131.645 57.624 C 131.719 57.983,131.565 58.019,129.276 58.178 C 128.579 58.227,127.944 58.373,127.864 58.502 C 127.784 58.631,126.894 58.737,125.886 58.737 C 124.878 58.737,123.921 58.869,123.761 59.029 C 123.600 59.190,123.111 59.351,122.674 59.387 C 122.237 59.423,121.880 59.561,121.880 59.693 C 121.880 59.825,121.604 59.785,121.268 59.605 C 120.788 59.348,120.548 59.376,120.154 59.732 C 119.843 60.013,119.008 60.208,117.965 60.242 C 117.037 60.272,116.209 60.409,116.124 60.545 C 116.040 60.681,115.044 60.793,113.912 60.793 C 112.561 60.793,111.714 60.931,111.450 61.195 C 111.203 61.442,110.634 61.551,109.972 61.478 C 109.380 61.413,108.738 61.491,108.545 61.650 C 108.352 61.810,107.706 61.974,107.108 62.015 C 106.451 62.059,106.021 62.238,106.021 62.468 C 106.021 62.678,105.881 62.849,105.710 62.849 C 105.538 62.849,105.480 62.717,105.580 62.555 C 105.864 62.095,105.148 62.211,104.654 62.705 C 104.411 62.948,104.090 63.073,103.941 62.981 C 103.793 62.889,103.671 62.962,103.671 63.142 C 103.671 63.323,103.539 63.389,103.377 63.289 C 103.216 63.189,103.084 63.256,103.084 63.437 C 103.084 63.618,102.852 63.742,102.570 63.711 C 101.942 63.643,100.147 64.358,100.147 64.675 C 100.147 65.070,97.270 64.938,97.135 64.537 C 97.039 64.251,96.904 64.259,96.524 64.573 C 96.206 64.835,96.035 64.861,96.035 64.647 C 96.035 64.250,93.778 64.196,93.637 64.589 C 93.583 64.739,92.680 64.891,91.630 64.926 C 90.580 64.962,89.570 65.108,89.385 65.252 C 89.200 65.395,88.275 65.540,87.329 65.574 C 86.383 65.608,85.464 65.772,85.287 65.938 C 85.110 66.105,84.192 66.215,83.248 66.182 C 82.051 66.141,81.437 66.249,81.221 66.539 C 81.035 66.788,80.319 66.975,79.442 67.003 C 78.634 67.030,77.907 67.150,77.827 67.270 C 77.746 67.390,77.217 67.530,76.652 67.581 C 76.087 67.632,75.327 67.859,74.963 68.085 C 74.600 68.311,74.298 68.382,74.294 68.242 C 74.289 68.103,74.150 68.220,73.985 68.502 C 73.821 68.785,73.362 69.016,72.966 69.016 C 72.571 69.016,72.247 69.139,72.247 69.289 C 72.247 69.440,71.949 69.605,71.586 69.657 C 71.169 69.716,70.940 69.939,70.965 70.261 C 70.988 70.542,70.893 70.702,70.756 70.618 C 70.618 70.533,70.237 70.732,69.908 71.061 C 69.579 71.390,69.310 71.522,69.310 71.354 C 69.310 71.065,67.620 72.669,66.667 73.863 C 66.275 74.354,66.275 74.388,66.667 74.167 C 66.909 74.030,66.843 74.186,66.520 74.514 C 66.197 74.841,65.833 75.051,65.712 74.982 C 65.591 74.912,65.492 75.041,65.492 75.268 C 65.492 75.494,65.231 75.916,64.911 76.205 C 64.592 76.494,64.402 76.845,64.488 76.985 C 64.575 77.125,64.521 77.239,64.368 77.239 C 64.022 77.239,63.034 79.220,62.950 80.084 C 62.915 80.437,62.664 81.067,62.391 81.483 C 62.064 81.981,61.955 82.538,62.071 83.116 C 62.198 83.751,62.135 83.994,61.842 83.994 C 61.296 83.994,61.168 91.758,61.708 92.092 C 61.948 92.240,61.983 92.178,61.819 91.896 C 61.683 91.661,61.691 91.585,61.838 91.718 C 61.980 91.848,62.108 92.816,62.124 93.870 C 62.139 94.944,62.297 95.876,62.482 95.990 C 62.664 96.103,62.843 97.018,62.879 98.024 C 62.915 99.030,63.056 99.853,63.191 99.853 C 63.326 99.853,63.436 100.584,63.436 101.478 C 63.436 102.553,63.567 103.152,63.824 103.251 C 64.108 103.360,64.187 103.952,64.119 105.445 C 64.042 107.106,64.107 107.489,64.465 107.489 C 64.810 107.489,64.905 107.895,64.905 109.373 C 64.905 110.430,65.040 111.303,65.213 111.361 C 65.385 111.418,65.526 112.299,65.531 113.346 C 65.537 114.583,65.631 115.085,65.805 114.810 C 66.056 114.413,66.220 116.395,66.099 118.355 C 66.065 118.897,66.125 118.983,66.328 118.684 C 66.706 118.124,66.911 118.872,67.021 121.218 C 67.068 122.227,67.206 123.053,67.327 123.054 C 67.449 123.054,67.548 123.719,67.548 124.532 C 67.548 125.575,67.677 126.059,67.988 126.179 C 68.231 126.272,68.429 126.474,68.429 126.627 C 68.429 126.781,68.282 126.816,68.104 126.706 C 67.890 126.574,67.840 126.698,67.956 127.066 C 68.054 127.374,68.155 128.216,68.181 128.938 C 68.206 129.659,68.321 130.316,68.435 130.396 C 68.549 130.477,68.724 131.402,68.825 132.451 C 68.926 133.500,69.142 134.403,69.306 134.458 C 69.470 134.512,69.604 135.313,69.604 136.236 C 69.604 137.159,69.734 138.046,69.894 138.206 C 70.054 138.366,70.226 139.221,70.276 140.107 C 70.327 140.993,70.489 141.913,70.637 142.151 C 70.784 142.389,70.923 143.245,70.944 144.053 C 71.004 146.372,71.029 146.483,71.366 145.962 C 71.574 145.639,71.652 145.849,71.655 146.752 C 71.657 147.429,71.777 148.056,71.921 148.144 C 72.064 148.233,72.236 148.770,72.302 149.336 L 72.422 150.367 69.691 150.367 C 68.189 150.367,66.876 150.356,66.773 150.342 C 66.670 150.328,66.474 150.493,66.337 150.709 C 66.135 151.027,66.087 151.021,66.084 150.675 C 66.080 150.344,66.001 150.328,65.727 150.602 C 65.533 150.796,65.137 150.954,64.846 150.954 C 64.555 150.954,64.317 151.113,64.317 151.307 C 64.317 151.573,64.234 151.576,63.979 151.321 C 63.740 151.082,63.474 151.071,63.079 151.282 C 62.771 151.447,62.135 151.593,61.666 151.606 C 61.129 151.622,60.885 151.750,61.006 151.953 C 61.112 152.131,60.950 152.078,60.646 151.836 C 60.342 151.593,60.184 151.546,60.294 151.731 C 60.536 152.135,59.882 152.423,58.722 152.423 C 58.153 152.423,57.922 152.547,58.019 152.800 C 58.118 153.057,57.904 153.163,57.349 153.134 C 56.890 153.109,56.305 153.330,56.009 153.638 C 55.720 153.939,55.324 154.183,55.128 154.181 C 54.906 154.178,54.938 154.069,55.213 153.891 C 55.589 153.648,55.579 153.606,55.140 153.602 C 54.857 153.600,54.626 153.796,54.626 154.038 C 54.626 154.280,54.369 154.479,54.056 154.479 C 53.742 154.479,53.414 154.594,53.327 154.734 C 53.240 154.875,52.761 155.072,52.263 155.172 C 51.667 155.291,51.430 155.472,51.571 155.700 C 51.715 155.934,51.628 155.987,51.301 155.861 C 50.987 155.741,50.706 155.882,50.504 156.260 C 50.332 156.582,49.669 157.054,49.031 157.309 C 48.393 157.564,47.871 157.971,47.871 158.213 C 47.871 158.484,47.701 158.588,47.430 158.484 C 47.188 158.391,46.990 158.451,46.990 158.617 C 46.990 158.783,46.854 158.835,46.689 158.733 C 46.523 158.630,46.424 158.722,46.468 158.936 C 46.513 159.150,46.384 159.291,46.182 159.251 C 45.980 159.211,45.815 159.398,45.815 159.667 C 45.815 159.936,45.741 160.083,45.652 159.993 C 45.427 159.769,40.235 164.931,40.235 165.378 C 40.235 165.575,40.153 165.655,40.053 165.555 C 39.792 165.294,39.060 166.099,39.060 166.646 C 39.060 166.900,38.928 167.107,38.767 167.107 C 38.605 167.107,38.473 167.311,38.473 167.561 C 38.473 167.811,38.162 168.326,37.781 168.706 C 37.172 169.316,36.751 170.000,36.553 170.705 C 36.518 170.826,36.458 171.024,36.419 171.145 C 36.380 171.267,36.371 171.487,36.399 171.636 C 36.427 171.784,36.260 171.748,36.028 171.556 C 35.676 171.263,35.619 171.353,35.684 172.111 C 35.744 172.815,35.662 172.979,35.319 172.848 C 34.988 172.721,34.918 172.831,35.037 173.288 C 35.133 173.653,35.037 173.959,34.799 174.050 C 34.578 174.135,34.413 174.595,34.427 175.088 C 34.441 175.575,34.280 176.080,34.069 176.210 C 33.859 176.341,33.667 176.799,33.645 177.229 C 33.622 177.658,33.439 178.111,33.239 178.235 C 33.020 178.370,32.912 178.920,32.968 179.612 C 33.023 180.287,32.902 180.928,32.675 181.160 C 32.200 181.647,32.169 193.910,32.640 194.790 C 32.801 195.091,32.943 195.759,32.956 196.274 C 32.968 196.789,33.119 197.301,33.290 197.412 C 33.462 197.523,33.572 198.072,33.534 198.632 C 33.494 199.233,33.649 199.833,33.913 200.098 C 34.160 200.344,34.361 200.940,34.361 201.423 C 34.361 201.906,34.499 202.347,34.668 202.403 C 34.837 202.459,34.996 202.791,35.023 203.141 C 35.049 203.491,35.175 203.712,35.303 203.633 C 35.431 203.554,35.536 203.828,35.536 204.241 C 35.536 204.654,35.666 204.993,35.824 204.993 C 35.983 204.993,36.195 205.323,36.296 205.727 C 36.398 206.131,36.599 206.461,36.743 206.461 C 36.887 206.461,37.004 206.791,37.004 207.195 C 37.004 207.664,37.170 207.930,37.462 207.930 C 37.714 207.930,37.838 208.062,37.739 208.223 C 37.639 208.385,37.736 208.517,37.955 208.517 C 38.563 208.517,38.609 210.458,38.006 210.689 C 37.666 210.819,37.563 211.126,37.653 211.740 C 37.735 212.295,37.637 212.661,37.381 212.759 C 36.801 212.982,36.879 223.495,37.460 223.495 C 37.683 223.495,37.807 223.729,37.747 224.040 C 37.689 224.340,37.883 224.953,38.179 225.403 C 38.474 225.854,38.647 226.401,38.563 226.621 C 38.479 226.840,38.524 227.019,38.663 227.019 C 38.803 227.019,39.093 227.449,39.309 227.974 C 39.990 229.633,40.654 230.837,40.889 230.837 C 41.014 230.837,41.116 231.068,41.116 231.351 C 41.117 231.634,41.447 232.249,41.851 232.718 C 42.254 233.188,42.584 233.771,42.584 234.015 C 42.584 234.259,42.666 234.377,42.766 234.277 C 43.031 234.012,43.759 234.825,43.759 235.385 C 43.759 235.649,43.882 235.788,44.033 235.695 C 44.183 235.602,44.389 235.661,44.490 235.825 C 44.592 235.989,44.502 236.127,44.290 236.132 C 44.079 236.137,44.170 236.291,44.493 236.473 C 44.816 236.656,45.279 237.065,45.521 237.382 C 46.572 238.759,47.522 239.641,48.257 239.921 C 48.691 240.085,49.046 240.422,49.046 240.668 C 49.046 240.914,49.183 241.116,49.351 241.116 C 49.520 241.116,49.941 241.380,50.288 241.703 C 50.635 242.026,51.106 242.291,51.335 242.291 C 51.591 242.291,51.684 242.467,51.577 242.747 C 51.480 242.997,51.522 243.128,51.668 243.038 C 51.815 242.947,52.134 243.072,52.378 243.316 C 52.622 243.560,53.169 243.759,53.594 243.759 C 54.019 243.759,54.297 243.872,54.212 244.010 C 54.030 244.304,56.898 245.815,57.640 245.815 C 57.920 245.815,58.150 245.947,58.150 246.109 C 58.150 246.270,58.406 246.402,58.720 246.402 C 59.033 246.402,59.373 246.537,59.474 246.701 C 59.576 246.865,59.782 246.923,59.932 246.830 C 60.083 246.737,60.206 246.797,60.206 246.963 C 60.206 247.129,60.383 247.197,60.599 247.114 C 60.815 247.031,61.162 247.167,61.369 247.417 C 61.624 247.723,62.259 247.871,63.325 247.871 C 64.194 247.871,64.905 247.986,64.905 248.126 C 64.905 248.266,65.731 248.399,66.740 248.421 C 68.089 248.450,68.673 248.591,68.943 248.956 C 69.145 249.229,69.310 249.294,69.310 249.102 C 69.310 248.909,69.450 248.752,69.621 248.752 C 69.792 248.752,69.850 248.884,69.750 249.046 C 69.641 249.223,70.041 249.339,70.761 249.339 C 71.492 249.339,71.953 249.203,71.953 248.987 C 71.953 248.713,72.031 248.713,72.305 248.987 C 72.836 249.517,77.816 249.439,78.544 248.889 C 78.881 248.634,79.759 248.458,80.692 248.458 C 81.560 248.458,82.504 248.333,82.789 248.181 C 83.075 248.028,83.933 247.871,84.696 247.831 C 85.460 247.792,86.150 247.652,86.231 247.521 C 86.312 247.390,86.780 247.283,87.270 247.283 C 88.122 247.283,89.906 246.500,90.113 246.035 C 90.166 245.914,90.339 245.815,90.497 245.815 C 90.655 245.815,90.702 245.947,90.602 246.109 C 90.502 246.270,90.561 246.402,90.732 246.402 C 90.903 246.402,91.043 246.270,91.043 246.109 C 91.043 245.947,91.362 245.815,91.752 245.815 C 92.143 245.815,92.506 245.684,92.560 245.524 C 92.614 245.364,93.007 245.204,93.433 245.169 C 93.979 245.124,94.159 244.978,94.043 244.675 C 93.927 244.373,94.017 244.298,94.345 244.424 C 94.615 244.528,94.880 244.425,94.974 244.181 C 95.063 243.949,95.295 243.759,95.489 243.759 C 95.683 243.759,96.084 243.540,96.379 243.273 C 96.879 242.820,96.916 242.821,96.916 243.284 C 96.916 243.729,97.336 243.777,100.881 243.742 C 103.062 243.720,104.846 243.603,104.846 243.481 C 104.846 243.360,105.800 243.233,106.966 243.199 C 108.132 243.165,109.262 242.991,109.478 242.812 C 109.693 242.633,110.467 242.493,111.198 242.501 C 112.069 242.511,112.580 242.376,112.682 242.110 C 112.791 241.827,113.369 241.703,114.586 241.703 C 115.548 241.703,116.266 241.593,116.182 241.457 C 116.099 241.322,116.579 241.190,117.249 241.164 C 117.919 241.137,118.559 240.969,118.670 240.789 C 118.810 240.563,118.921 240.585,119.032 240.863 C 119.166 241.197,119.239 241.195,119.480 240.850 C 119.638 240.623,120.205 240.450,120.739 240.465 C 121.336 240.482,121.563 240.402,121.329 240.258 C 120.889 239.986,121.532 239.648,122.491 239.648 C 122.801 239.648,123.054 239.515,123.054 239.354 C 123.054 239.192,123.257 239.060,123.505 239.060 C 123.969 239.060,125.412 238.240,125.728 237.797 C 125.990 237.430,127.911 237.682,127.838 238.073 C 127.736 238.619,135.586 238.561,135.796 238.014 C 135.914 237.707,136.477 237.592,137.859 237.592 C 138.904 237.592,139.841 237.460,139.941 237.298 C 140.041 237.137,140.683 237.004,141.368 237.004 C 142.053 237.004,142.792 236.839,143.009 236.637 C 143.301 236.367,143.352 236.364,143.204 236.627 C 143.057 236.888,143.263 236.875,143.969 236.581 C 144.500 236.360,145.396 236.216,145.962 236.262 C 146.527 236.308,147.080 236.203,147.190 236.029 C 147.300 235.855,147.919 235.744,148.565 235.782 C 149.358 235.829,149.818 235.709,149.984 235.412 C 150.161 235.096,150.808 234.957,152.281 234.919 C 153.409 234.890,154.417 234.735,154.520 234.574 C 154.624 234.414,155.549 234.288,156.576 234.294 C 157.603 234.301,158.618 234.162,158.832 233.986 C 159.046 233.810,159.822 233.697,160.558 233.736 C 161.663 233.793,161.865 233.725,161.721 233.349 C 161.573 232.964,161.861 232.893,163.575 232.893 C 164.691 232.893,165.686 232.761,165.786 232.599 C 166.051 232.169,166.592 232.240,166.347 232.673 C 166.181 232.966,166.219 232.966,166.535 232.673 C 166.753 232.471,167.422 232.305,168.023 232.305 C 168.623 232.305,169.164 232.155,169.225 231.971 C 169.298 231.754,170.261 231.637,171.967 231.638 C 173.723 231.639,174.745 231.510,175.045 231.252 C 175.292 231.039,176.018 230.836,176.660 230.801 C 177.302 230.766,177.967 230.632,178.138 230.504 C 178.309 230.376,179.300 230.247,180.340 230.218 C 181.381 230.189,182.302 230.058,182.388 229.927 C 182.474 229.796,183.035 229.656,183.636 229.616 C 184.237 229.575,184.730 229.404,184.733 229.235 C 184.736 229.035,184.813 229.041,184.953 229.251 C 185.232 229.667,186.182 229.663,186.107 229.246 C 186.076 229.071,186.577 228.885,187.221 228.833 C 187.865 228.780,188.460 228.629,188.542 228.496 C 188.625 228.363,189.090 228.207,189.574 228.150 C 190.059 228.094,190.631 227.881,190.846 227.677 C 191.061 227.474,191.349 227.377,191.486 227.462 C 191.624 227.547,191.832 227.461,191.949 227.272 C 192.081 227.057,192.034 227.007,191.822 227.138 C 191.636 227.253,191.483 227.205,191.483 227.031 C 191.483 226.848,191.766 226.785,192.154 226.883 C 192.843 227.056,194.300 226.116,193.925 225.741 C 193.751 225.567,194.527 225.423,195.103 225.523 C 195.236 225.546,195.267 225.439,195.172 225.285 C 195.077 225.131,195.267 224.920,195.595 224.816 C 195.922 224.712,196.115 224.505,196.022 224.355 C 195.930 224.205,196.258 224.082,196.752 224.082 C 197.326 224.082,197.651 224.231,197.651 224.493 C 197.651 224.788,198.002 224.889,198.899 224.854 C 199.585 224.827,200.308 224.959,200.506 225.148 C 201.039 225.660,208.051 225.703,207.855 225.193 C 207.745 224.906,208.226 224.825,209.892 224.851 C 211.727 224.881,212.047 224.816,211.904 224.443 C 211.757 224.059,211.802 224.055,212.238 224.408 C 212.571 224.679,212.667 224.693,212.521 224.449 C 212.354 224.172,212.734 224.082,214.080 224.082 C 215.070 224.082,215.859 223.952,215.859 223.789 C 215.859 223.627,216.559 223.495,217.416 223.495 C 218.272 223.495,219.150 223.330,219.368 223.128 C 219.689 222.829,219.717 222.843,219.517 223.201 C 219.308 223.574,219.343 223.583,219.744 223.258 C 220.005 223.047,220.892 222.869,221.717 222.863 C 222.598 222.856,223.386 222.681,223.628 222.439 C 223.882 222.185,224.660 222.026,225.652 222.026 C 226.539 222.026,227.308 221.899,227.362 221.743 C 227.416 221.587,228.281 221.435,229.285 221.405 C 230.290 221.376,231.042 221.239,230.957 221.102 C 230.800 220.849,231.265 220.787,233.260 220.797 C 233.903 220.800,234.363 220.660,234.366 220.460 C 234.368 220.265,234.493 220.307,234.655 220.558 C 234.905 220.944,234.940 220.941,234.944 220.535 C 234.948 220.175,235.325 220.056,236.631 220.003 C 237.556 219.966,238.387 219.816,238.477 219.670 C 238.567 219.525,239.693 219.376,240.980 219.339 C 242.266 219.303,243.405 219.145,243.510 218.990 C 243.616 218.834,244.501 218.694,245.478 218.678 C 246.470 218.662,247.416 218.487,247.621 218.282 C 247.823 218.080,248.623 217.915,249.398 217.915 C 250.173 217.915,250.808 217.801,250.808 217.662 C 250.808 217.524,251.766 217.386,252.937 217.357 C 254.108 217.328,255.110 217.178,255.164 217.022 C 255.218 216.867,256.083 216.740,257.088 216.740 C 258.092 216.740,259.056 216.598,259.230 216.424 C 259.404 216.250,260.316 216.071,261.256 216.027 C 262.218 215.982,263.015 215.800,263.079 215.610 C 263.147 215.406,263.874 215.272,264.905 215.272 C 265.899 215.272,266.663 215.135,266.726 214.946 C 266.792 214.748,267.577 214.630,268.720 214.646 C 269.882 214.662,270.687 214.539,270.819 214.324 C 270.946 214.119,271.567 214.009,272.334 214.056 C 273.209 214.110,273.784 213.986,274.094 213.676 C 274.347 213.423,274.960 213.216,275.456 213.216 C 275.952 213.216,276.358 213.084,276.358 212.922 C 276.358 212.761,276.457 212.644,276.579 212.663 C 277.429 212.798,279.001 212.573,279.001 212.317 C 279.001 212.146,278.869 212.088,278.708 212.188 C 278.546 212.288,278.414 212.214,278.414 212.024 C 278.414 211.824,278.660 211.743,279.001 211.833 C 279.338 211.920,279.591 211.841,279.593 211.647 C 279.596 211.429,279.687 211.448,279.846 211.699 C 280.046 212.014,280.129 212.000,280.273 211.625 C 280.371 211.369,280.709 211.160,281.024 211.160 C 281.338 211.160,281.649 211.001,281.713 210.807 C 281.839 210.431,284.893 210.450,285.167 210.829 C 285.424 211.184,287.589 211.228,287.802 210.882 C 287.923 210.687,288.907 210.548,290.203 210.541 C 291.411 210.534,292.590 210.394,292.822 210.230 C 293.161 209.990,293.139 209.964,292.716 210.101 C 292.425 210.195,292.248 210.174,292.322 210.053 C 292.396 209.933,293.321 209.852,294.376 209.873 C 295.761 209.901,296.337 209.800,296.449 209.508 C 296.559 209.223,297.163 209.104,298.505 209.104 C 299.550 209.104,300.488 208.972,300.587 208.811 C 300.687 208.649,301.395 208.517,302.161 208.517 C 302.927 208.517,303.679 208.394,303.833 208.245 C 303.986 208.095,304.508 207.914,304.993 207.844 C 306.835 207.575,307.838 207.245,307.986 206.860 C 308.070 206.641,308.382 206.461,308.678 206.461 C 308.974 206.461,309.298 206.329,309.398 206.167 C 309.498 206.006,309.844 205.874,310.167 205.874 C 310.490 205.874,310.682 205.757,310.593 205.613 C 310.505 205.470,310.728 205.272,311.090 205.173 C 311.639 205.022,311.675 204.945,311.307 204.703 C 310.924 204.452,310.930 204.414,311.350 204.410 C 311.964 204.404,314.080 203.178,314.148 202.789 C 314.244 202.234,315.121 200.735,315.123 201.122 C 315.126 201.780,315.921 202.349,316.835 202.349 C 317.365 202.349,317.776 202.535,317.887 202.823 C 318.003 203.126,318.282 203.241,318.658 203.143 C 318.982 203.058,319.433 203.176,319.661 203.404 C 319.934 203.676,320.736 203.818,322.005 203.818 C 323.096 203.818,323.935 203.946,323.935 204.112 C 323.935 204.495,326.489 204.495,326.725 204.112 C 326.825 203.950,327.732 203.818,328.740 203.818 C 329.799 203.818,330.740 203.663,330.968 203.451 C 331.285 203.157,331.322 203.157,331.156 203.451 C 330.870 203.958,331.518 203.913,332.041 203.390 C 332.277 203.154,332.665 203.037,332.905 203.129 C 333.145 203.221,333.537 203.133,333.778 202.934 C 334.081 202.682,334.214 202.672,334.214 202.901 C 334.214 203.390,335.006 203.301,335.202 202.790 C 335.328 202.460,335.857 202.349,337.306 202.349 C 338.522 202.349,339.174 202.240,339.060 202.056 C 338.946 201.872,339.587 201.762,340.781 201.762 C 342.002 201.762,342.724 201.636,342.800 201.409 C 342.867 201.207,343.402 201.069,344.045 201.087 C 344.714 201.106,345.019 201.024,344.794 200.885 C 344.438 200.666,346.055 200.093,346.623 200.238 C 346.744 200.269,346.843 200.162,346.843 200.000 C 346.843 199.838,347.107 199.706,347.430 199.706 C 347.753 199.706,348.018 199.601,348.018 199.472 C 348.018 199.343,348.480 199.070,349.046 198.865 C 349.771 198.603,350.083 198.304,350.107 197.852 C 350.135 197.331,350.167 197.310,350.279 197.740 C 350.403 198.220,350.480 198.202,351.079 197.555 C 351.444 197.162,352.026 196.688,352.373 196.503 C 352.720 196.317,353.083 195.847,353.181 195.459 C 353.306 194.959,353.500 194.804,353.845 194.927 C 354.113 195.023,354.247 195.006,354.144 194.890 C 354.040 194.775,354.339 194.259,354.809 193.745 C 355.278 193.231,355.599 192.646,355.522 192.444 C 355.444 192.243,355.541 192.109,355.737 192.147 C 355.934 192.186,356.095 191.964,356.095 191.654 C 356.096 191.344,356.262 191.036,356.464 190.968 C 356.666 190.901,356.757 190.725,356.666 190.577 C 356.575 190.429,356.654 190.308,356.842 190.308 C 357.031 190.308,357.111 190.117,357.021 189.883 C 356.912 189.598,356.999 189.511,357.284 189.621 C 357.584 189.736,357.709 189.572,357.709 189.067 C 357.709 188.673,357.801 188.259,357.914 188.146 C 358.122 187.938,358.239 187.444,358.358 186.270 C 358.395 185.907,358.528 185.609,358.654 185.609 C 359.002 185.609,358.939 175.105,358.590 174.890 C 358.429 174.790,358.297 173.981,358.297 173.093 C 358.297 172.065,358.187 171.545,357.996 171.664 C 357.830 171.766,357.714 171.741,357.737 171.608 C 357.942 170.427,357.661 167.983,357.342 168.174 C 357.128 168.303,357.159 168.164,357.416 167.841 C 357.658 167.537,357.705 167.379,357.520 167.490 C 357.058 167.766,356.828 167.038,356.828 165.304 C 356.828 164.404,356.715 163.912,356.535 164.023 C 356.301 164.168,356.106 161.363,356.266 160.165 C 356.280 160.062,356.147 159.889,355.972 159.780 C 355.797 159.672,355.636 158.831,355.615 157.912 C 355.594 156.993,355.454 156.241,355.304 156.241 C 355.154 156.241,355.113 156.109,355.213 155.947 C 355.313 155.786,355.254 155.653,355.083 155.653 C 354.549 155.653,354.728 153.306,355.321 152.553 C 355.622 152.169,355.920 151.904,355.982 151.963 C 356.043 152.022,356.264 151.885,356.473 151.659 C 356.681 151.433,356.747 151.246,356.620 151.244 C 356.492 151.241,356.707 151.076,357.098 150.877 C 357.489 150.677,358.061 150.051,358.369 149.486 C 358.677 148.921,359.109 148.317,359.329 148.145 C 359.549 147.973,359.770 147.646,359.820 147.418 C 359.871 147.190,360.078 146.825,360.282 146.606 C 360.485 146.387,360.576 146.087,360.485 145.938 C 360.393 145.790,360.458 145.668,360.629 145.668 C 360.800 145.668,360.940 145.481,360.940 145.252 C 360.940 145.023,361.039 144.792,361.160 144.738 C 361.565 144.558,362.408 141.639,362.408 140.416 C 362.408 139.751,362.523 139.207,362.662 139.207 C 362.999 139.207,363.040 134.475,362.707 134.073 C 362.564 133.902,362.408 132.797,362.360 131.618 C 362.311 130.439,362.131 129.357,361.959 129.214 C 361.786 129.071,361.668 128.255,361.695 127.399 C 361.754 125.554,361.576 124.855,361.197 125.453 C 361.046 125.691,360.947 125.131,360.944 124.026 C 360.942 123.026,360.808 122.126,360.646 122.026 C 360.485 121.927,360.352 121.184,360.352 120.376 C 360.352 119.569,360.240 118.977,360.103 119.062 C 359.966 119.147,359.843 118.824,359.829 118.345 C 359.790 116.970,359.461 116.137,359.150 116.628 C 358.972 116.909,358.892 116.739,358.888 116.079 C 358.886 115.554,358.752 115.125,358.590 115.125 C 358.429 115.125,358.297 114.780,358.297 114.359 C 358.297 113.811,358.176 113.640,357.871 113.757 C 357.601 113.861,357.500 113.779,357.594 113.533 C 357.680 113.309,357.477 113.077,357.109 112.981 C 356.758 112.889,356.562 112.675,356.669 112.501 C 356.776 112.329,356.661 112.188,356.414 112.188 C 356.116 112.188,356.029 112.024,356.153 111.699 C 356.279 111.371,356.228 111.280,355.997 111.423 C 355.789 111.552,355.653 111.448,355.653 111.161 C 355.653 110.531,353.907 108.957,353.207 108.957 C 352.838 108.957,352.710 108.812,352.821 108.521 C 352.995 108.068,352.061 107.362,351.727 107.695 C 351.625 107.797,351.542 107.660,351.542 107.391 C 351.542 107.122,351.443 106.917,351.322 106.936 C 350.604 107.050,349.771 106.859,349.921 106.617 C 350.018 106.460,349.762 106.247,349.351 106.144 C 348.941 106.041,348.605 105.831,348.605 105.678 C 348.605 105.524,348.483 105.474,348.335 105.565 C 348.186 105.657,347.889 105.566,347.674 105.362 C 347.459 105.159,346.953 104.946,346.549 104.889 C 346.145 104.832,345.718 104.634,345.599 104.448 C 345.451 104.218,345.382 104.246,345.379 104.537 C 345.375 104.869,345.296 104.885,345.022 104.611 C 344.828 104.417,344.035 104.258,343.260 104.258 C 342.132 104.258,341.850 104.159,341.850 103.762 C 341.850 103.326,341.793 103.335,341.386 103.835 C 340.989 104.322,340.945 104.330,341.083 103.891 C 341.172 103.609,341.116 103.377,340.960 103.377 C 340.803 103.377,340.675 103.496,340.675 103.640 C 340.675 103.998,338.386 104.193,337.945 103.873 C 337.711 103.702,337.765 103.671,338.106 103.781 C 338.388 103.872,338.620 103.818,338.620 103.662 C 338.620 103.205,337.737 103.334,337.551 103.818 C 337.431 104.131,336.942 104.258,335.857 104.258 C 335.018 104.258,334.154 104.424,333.936 104.626 C 333.615 104.924,333.585 104.910,333.774 104.552 C 333.963 104.194,333.933 104.180,333.611 104.479 C 333.394 104.681,332.508 104.846,331.642 104.846 C 330.461 104.846,330.123 104.937,330.289 105.213 C 330.460 105.498,330.414 105.503,330.085 105.237 C 329.760 104.975,329.544 104.980,329.163 105.258 C 328.889 105.459,328.181 105.584,327.588 105.538 C 326.996 105.491,326.137 105.647,325.679 105.883 C 325.220 106.120,324.178 106.314,323.363 106.314 C 322.547 106.314,321.880 106.446,321.880 106.608 C 321.880 106.769,321.164 106.902,320.289 106.902 C 319.337 106.902,318.652 107.039,318.584 107.244 C 318.515 107.451,317.862 107.579,316.945 107.568 C 316.081 107.556,315.493 107.665,315.588 107.819 C 315.812 108.183,315.037 108.010,314.762 107.636 C 314.640 107.470,314.544 107.566,314.542 107.856 C 314.537 108.433,313.953 108.577,313.946 108.003 C 313.942 107.734,313.883 107.727,313.725 107.975 C 313.606 108.162,312.915 108.350,312.188 108.394 C 311.461 108.438,310.734 108.567,310.573 108.681 C 309.910 109.148,308.077 109.147,308.061 108.678 C 307.975 106.051,307.856 104.626,307.692 104.258 C 307.584 104.016,307.451 103.047,307.396 102.104 C 307.333 101.035,307.139 100.291,306.879 100.126 C 306.524 99.902,306.527 99.861,306.902 99.853 C 307.187 99.847,307.229 99.768,307.020 99.628 C 306.833 99.503,306.728 98.703,306.770 97.724 C 306.825 96.438,306.744 96.035,306.431 96.035 C 306.122 96.035,306.021 95.566,306.021 94.126 C 306.021 93.049,305.893 92.217,305.727 92.217 C 305.562 92.217,305.433 91.405,305.433 90.367 C 305.433 89.349,305.296 88.380,305.129 88.213 C 304.962 88.045,304.816 87.142,304.804 86.204 C 304.793 85.267,304.684 84.661,304.562 84.859 C 304.210 85.429,303.965 84.468,303.965 82.519 C 303.965 81.573,303.833 80.717,303.671 80.617 C 303.510 80.517,303.377 79.732,303.377 78.873 C 303.377 77.982,303.220 77.180,303.010 77.007 C 302.784 76.819,302.654 76.021,302.672 74.925 C 302.687 73.948,302.602 73.209,302.482 73.283 C 302.135 73.498,301.909 72.610,301.909 71.031 C 301.909 70.131,301.796 69.639,301.615 69.750 C 301.429 69.866,301.322 69.062,301.322 67.548 C 301.322 66.033,301.214 65.230,301.028 65.345 C 300.850 65.455,300.717 64.971,300.689 64.114 C 300.625 62.072,300.616 62.026,300.217 61.627 C 300.011 61.421,299.853 60.522,299.853 59.559 C 299.853 58.620,299.722 57.856,299.559 57.856 C 299.398 57.856,299.266 57.338,299.266 56.706 C 299.266 56.060,299.105 55.491,298.899 55.407 C 298.612 55.292,298.614 55.254,298.909 55.236 C 299.202 55.218,299.212 55.074,298.953 54.590 C 298.697 54.112,298.702 54.018,298.972 54.185 C 299.235 54.347,299.249 54.262,299.029 53.851 C 298.866 53.547,298.698 52.705,298.655 51.980 C 298.612 51.254,298.440 50.396,298.272 50.073 C 298.105 49.750,298.005 49.303,298.051 49.079 C 298.190 48.403,297.800 47.247,297.495 47.436 C 297.336 47.534,297.210 47.240,297.210 46.772 C 297.210 46.310,297.089 45.807,296.941 45.653 C 296.793 45.500,296.628 45.110,296.574 44.787 C 296.520 44.464,296.344 44.105,296.182 43.989 C 296.021 43.872,295.888 43.476,295.888 43.107 C 295.888 42.728,295.729 42.469,295.521 42.511 C 295.319 42.551,295.154 42.386,295.154 42.144 C 295.154 41.902,295.014 41.703,294.843 41.703 C 294.672 41.703,294.603 41.588,294.690 41.448 C 294.889 41.126,293.753 39.830,292.878 39.379 C 292.515 39.193,292.219 38.879,292.222 38.683 C 292.225 38.434,292.303 38.447,292.479 38.724 C 292.655 39.002,292.792 39.024,292.932 38.798 C 293.043 38.619,292.993 38.456,292.822 38.436 C 292.651 38.416,292.390 38.383,292.242 38.363 C 292.094 38.343,291.443 37.769,290.796 37.089 C 290.149 36.409,289.283 35.768,288.873 35.665 C 288.463 35.562,288.047 35.226,287.950 34.919 C 287.757 34.313,287.225 34.151,287.225 34.700 C 287.225 34.886,286.978 34.754,286.676 34.406 C 286.078 33.716,285.611 33.555,285.908 34.141 C 286.010 34.343,285.898 34.268,285.658 33.975 C 285.419 33.682,284.980 33.484,284.682 33.535 C 284.348 33.592,284.173 33.474,284.226 33.226 C 284.288 32.931,284.038 32.858,283.271 32.947 C 282.610 33.024,282.232 32.945,282.232 32.729 C 282.232 32.487,280.858 32.372,277.507 32.333 C 274.631 32.299,272.848 32.384,272.952 32.552 " stroke="none" fill="#e47434" fill-rule="evenodd"></path><path id="path1" d="M268.270 33.206 C 268.000 33.643,268.313 33.881,268.875 33.665 C 269.135 33.566,269.265 33.351,269.164 33.189 C 268.926 32.803,268.514 32.811,268.270 33.206 M241.845 37.893 C 241.769 38.017,241.871 38.174,242.072 38.243 C 242.679 38.451,245.228 38.139,245.228 37.857 C 245.228 37.540,242.042 37.574,241.845 37.893 M252.689 37.931 C 252.559 38.141,252.608 38.190,252.818 38.060 C 253.005 37.945,253.157 37.999,253.157 38.179 C 253.157 38.360,253.289 38.426,253.451 38.326 C 253.612 38.226,253.744 38.020,253.744 37.868 C 253.744 37.477,252.940 37.524,252.689 37.931 M291.630 37.724 C 291.630 37.824,291.843 38.232,292.104 38.630 C 292.595 39.378,293.098 39.588,293.098 39.043 C 293.098 38.872,292.966 38.814,292.805 38.913 C 292.643 39.013,292.494 38.955,292.474 38.784 C 292.454 38.613,292.421 38.319,292.401 38.130 C 292.363 37.780,291.630 37.394,291.630 37.724 M233.878 39.422 C 233.574 39.914,234.078 40.056,234.529 39.606 C 234.930 39.205,234.928 39.158,234.509 39.158 C 234.252 39.158,233.968 39.277,233.878 39.422 M222.202 41.332 C 221.819 41.715,222.063 41.909,222.761 41.775 C 223.164 41.698,223.495 41.546,223.495 41.438 C 223.495 41.186,222.434 41.100,222.202 41.332 M215.272 42.505 C 215.514 42.597,215.809 42.818,215.928 42.996 C 216.061 43.195,216.145 43.122,216.148 42.805 C 216.151 42.459,215.936 42.298,215.492 42.314 C 215.050 42.329,214.977 42.393,215.272 42.505 M210.866 43.460 C 211.365 43.789,212.247 43.867,211.936 43.556 C 211.824 43.444,211.438 43.311,211.079 43.261 C 210.561 43.189,210.517 43.230,210.866 43.460 M203.426 44.807 C 203.627 45.331,204.002 45.350,204.195 44.847 C 204.279 44.627,204.113 44.450,203.802 44.426 C 203.447 44.399,203.319 44.529,203.426 44.807 M167.781 50.930 C 167.682 51.105,167.709 51.150,167.841 51.030 C 167.973 50.911,168.264 50.965,168.488 51.150 C 168.795 51.405,168.981 51.400,169.249 51.130 C 169.527 50.850,169.482 50.819,169.041 50.987 C 168.692 51.120,168.548 51.090,168.661 50.906 C 168.762 50.744,168.645 50.612,168.403 50.612 C 168.161 50.612,167.881 50.755,167.781 50.930 M157.166 52.849 C 157.231 53.043,157.379 53.191,157.496 53.179 C 157.847 53.143,157.779 52.740,157.401 52.614 C 157.207 52.549,157.101 52.655,157.166 52.849 M153.944 53.535 C 153.707 53.820,153.765 53.912,154.180 53.912 C 154.482 53.912,154.672 53.820,154.602 53.707 C 154.532 53.594,154.641 53.434,154.844 53.352 C 155.081 53.257,155.042 53.195,154.735 53.180 C 154.472 53.168,154.116 53.327,153.944 53.535 M142.754 55.745 C 142.771 56.100,142.823 56.127,142.937 55.840 C 143.056 55.540,143.150 55.528,143.313 55.792 C 143.476 56.055,143.570 56.041,143.686 55.738 C 143.782 55.488,143.629 55.317,143.286 55.291 C 142.937 55.265,142.740 55.433,142.754 55.745 M130.850 57.542 C 130.632 57.894,131.185 58.242,131.576 58.000 C 131.904 57.797,131.689 57.269,131.278 57.269 C 131.135 57.269,130.942 57.392,130.850 57.542 M105.362 62.163 C 105.565 62.245,105.656 62.432,105.565 62.580 C 105.473 62.728,105.538 62.849,105.710 62.849 C 105.881 62.849,106.021 62.651,106.021 62.408 C 106.021 62.166,105.789 61.978,105.507 61.991 C 105.197 62.005,105.139 62.073,105.362 62.163 M102.558 63.300 C 102.245 63.655,102.258 63.730,102.632 63.730 C 102.880 63.730,103.084 63.590,103.084 63.419 C 103.084 63.248,103.216 63.189,103.377 63.289 C 103.539 63.389,103.671 63.331,103.671 63.160 C 103.671 62.713,103.002 62.797,102.558 63.300 M93.415 64.537 C 93.429 64.844,93.498 64.904,93.587 64.684 C 93.750 64.280,96.035 64.166,96.035 64.562 C 96.035 64.697,96.211 64.807,96.427 64.807 C 96.642 64.807,96.818 64.630,96.818 64.415 C 96.818 64.134,96.337 64.023,95.105 64.023 C 93.661 64.023,93.396 64.104,93.415 64.537 M66.217 74.024 C 65.938 74.475,66.320 74.766,66.697 74.389 C 66.908 74.179,66.913 74.014,66.713 73.890 C 66.548 73.789,66.325 73.849,66.217 74.024 M302.752 76.752 C 302.931 76.969,303.015 77.235,302.937 77.342 C 302.859 77.450,302.941 77.416,303.119 77.267 C 303.480 76.967,303.224 76.358,302.737 76.358 C 302.523 76.358,302.528 76.483,302.752 76.752 M61.568 83.317 C 61.237 83.648,61.367 83.994,61.821 83.994 C 62.063 83.994,62.261 83.870,62.261 83.718 C 62.261 83.347,61.803 83.082,61.568 83.317 M61.538 91.906 C 61.431 92.080,61.550 92.429,61.804 92.683 C 62.222 93.101,62.256 93.088,62.173 92.541 C 62.055 91.771,61.787 91.503,61.538 91.906 M63.436 103.533 C 63.436 103.771,63.634 103.965,63.877 103.965 C 64.119 103.965,64.317 103.847,64.317 103.702 C 64.317 103.558,64.119 103.364,63.877 103.271 C 63.608 103.168,63.436 103.271,63.436 103.533 M337.782 103.739 C 338.310 104.168,340.675 104.087,340.675 103.640 C 340.675 103.496,340.213 103.377,339.648 103.377 C 339.082 103.377,338.620 103.514,338.620 103.681 C 338.620 103.886,338.404 103.881,337.959 103.665 C 337.386 103.387,337.362 103.397,337.782 103.739 M325.276 105.696 C 325.058 106.049,325.875 106.340,326.456 106.117 C 326.831 105.974,326.845 105.890,326.530 105.690 C 326.017 105.365,325.479 105.368,325.276 105.696 M313.950 107.930 C 313.950 108.172,314.082 108.370,314.244 108.370 C 314.405 108.370,314.537 108.172,314.537 107.930 C 314.537 107.687,314.405 107.489,314.244 107.489 C 314.082 107.489,313.950 107.687,313.950 107.930 M352.717 108.664 C 352.717 108.825,352.915 108.957,353.157 108.957 C 353.399 108.957,353.598 108.825,353.598 108.664 C 353.598 108.502,353.399 108.370,353.157 108.370 C 352.915 108.370,352.717 108.502,352.717 108.664 M67.571 126.661 C 67.584 127.020,67.661 127.147,67.743 126.944 C 67.825 126.741,68.012 126.650,68.160 126.741 C 68.308 126.832,68.429 126.781,68.429 126.627 C 68.429 126.474,68.231 126.272,67.988 126.179 C 67.675 126.058,67.554 126.198,67.571 126.661 M57.269 152.661 C 57.269 152.818,57.478 153.028,57.734 153.126 C 58.020 153.236,58.154 153.170,58.083 152.955 C 57.936 152.516,57.269 152.275,57.269 152.661 M49.927 156.552 C 49.927 156.723,49.794 156.781,49.633 156.681 C 49.471 156.582,49.339 156.640,49.339 156.811 C 49.339 157.260,49.796 157.193,50.220 156.681 C 50.473 156.377,50.484 156.241,50.256 156.241 C 50.075 156.241,49.927 156.381,49.927 156.552 M47.283 158.150 C 47.283 158.392,47.416 158.590,47.577 158.590 C 47.739 158.590,47.871 158.392,47.871 158.150 C 47.871 157.907,47.739 157.709,47.577 157.709 C 47.416 157.709,47.283 157.907,47.283 158.150 M354.948 192.906 C 354.846 193.070,354.906 193.293,355.081 193.401 C 355.532 193.680,355.824 193.298,355.447 192.921 C 355.236 192.710,355.072 192.705,354.948 192.906 M314.635 201.637 C 314.450 202.029,314.410 202.349,314.545 202.349 C 314.801 202.349,315.257 201.209,315.075 201.027 C 315.018 200.970,314.820 201.245,314.635 201.637 M35.603 205.341 C 35.667 205.533,35.877 205.743,36.068 205.806 C 36.283 205.878,36.349 205.744,36.239 205.458 C 36.034 204.924,35.427 204.813,35.603 205.341 M207.847 225.173 C 207.927 225.381,208.096 225.551,208.223 225.551 C 208.350 225.551,208.519 225.381,208.599 225.173 C 208.683 224.953,208.527 224.795,208.223 224.795 C 207.920 224.795,207.763 224.953,207.847 225.173 M165.797 232.581 C 165.716 232.712,165.977 232.819,166.378 232.819 C 166.779 232.819,167.107 232.732,167.107 232.625 C 167.107 232.340,165.969 232.302,165.797 232.581 M161.720 233.348 C 161.920 233.869,162.740 233.809,162.922 233.260 C 162.999 233.030,162.764 232.893,162.295 232.893 C 161.739 232.893,161.591 233.010,161.720 233.348 M154.654 234.284 C 154.339 234.599,154.469 234.949,154.902 234.949 C 155.135 234.949,155.398 234.830,155.488 234.686 C 155.674 234.383,154.919 234.019,154.654 234.284 M47.871 240.204 C 47.871 240.372,48.057 240.439,48.286 240.351 C 48.527 240.258,48.765 240.415,48.856 240.727 C 48.989 241.184,49.003 241.177,48.952 240.679 C 48.891 240.088,47.871 239.640,47.871 240.204 M50.514 242.138 C 50.514 242.185,50.840 242.437,51.239 242.698 C 51.807 243.071,51.930 243.084,51.806 242.761 C 51.676 242.420,50.514 241.860,50.514 242.138 M96.465 243.190 C 96.359 243.361,95.954 243.622,95.566 243.770 C 95.178 243.918,94.860 244.157,94.860 244.302 C 94.860 244.711,96.896 243.660,96.907 243.245 C 96.918 242.796,96.723 242.772,96.465 243.190 " stroke="none" fill="#e87434" fill-rule="evenodd"></path><path id="path2" d="M268.270 33.206 C 268.000 33.643,268.313 33.881,268.875 33.665 C 269.135 33.566,269.265 33.351,269.164 33.189 C 268.926 32.803,268.514 32.811,268.270 33.206 M241.845 37.893 C 241.769 38.017,241.871 38.174,242.072 38.243 C 242.679 38.451,245.228 38.139,245.228 37.857 C 245.228 37.540,242.042 37.574,241.845 37.893 M252.689 37.931 C 252.559 38.141,252.608 38.190,252.818 38.060 C 253.005 37.945,253.157 37.999,253.157 38.179 C 253.157 38.360,253.289 38.426,253.451 38.326 C 253.612 38.226,253.744 38.020,253.744 37.868 C 253.744 37.477,252.940 37.524,252.689 37.931 M291.630 37.724 C 291.630 37.824,291.843 38.232,292.104 38.630 C 292.595 39.378,293.098 39.588,293.098 39.043 C 293.098 38.872,292.966 38.814,292.805 38.913 C 292.643 39.013,292.494 38.955,292.474 38.784 C 292.454 38.613,292.421 38.319,292.401 38.130 C 292.363 37.780,291.630 37.394,291.630 37.724 M233.878 39.422 C 233.574 39.914,234.078 40.056,234.529 39.606 C 234.930 39.205,234.928 39.158,234.509 39.158 C 234.252 39.158,233.968 39.277,233.878 39.422 M222.202 41.332 C 221.819 41.715,222.063 41.909,222.761 41.775 C 223.164 41.698,223.495 41.546,223.495 41.438 C 223.495 41.186,222.434 41.100,222.202 41.332 M215.272 42.505 C 215.514 42.597,215.809 42.818,215.928 42.996 C 216.061 43.195,216.145 43.122,216.148 42.805 C 216.151 42.459,215.936 42.298,215.492 42.314 C 215.050 42.329,214.977 42.393,215.272 42.505 M210.866 43.460 C 211.365 43.789,212.247 43.867,211.936 43.556 C 211.824 43.444,211.438 43.311,211.079 43.261 C 210.561 43.189,210.517 43.230,210.866 43.460 M203.426 44.807 C 203.627 45.331,204.002 45.350,204.195 44.847 C 204.279 44.627,204.113 44.450,203.802 44.426 C 203.447 44.399,203.319 44.529,203.426 44.807 M167.781 50.930 C 167.682 51.105,167.709 51.150,167.841 51.030 C 167.973 50.911,168.264 50.965,168.488 51.150 C 168.795 51.405,168.981 51.400,169.249 51.130 C 169.527 50.850,169.482 50.819,169.041 50.987 C 168.692 51.120,168.548 51.090,168.661 50.906 C 168.762 50.744,168.645 50.612,168.403 50.612 C 168.161 50.612,167.881 50.755,167.781 50.930 M157.166 52.849 C 157.231 53.043,157.379 53.191,157.496 53.179 C 157.847 53.143,157.779 52.740,157.401 52.614 C 157.207 52.549,157.101 52.655,157.166 52.849 M153.944 53.535 C 153.707 53.820,153.765 53.912,154.180 53.912 C 154.482 53.912,154.672 53.820,154.602 53.707 C 154.532 53.594,154.641 53.434,154.844 53.352 C 155.081 53.257,155.042 53.195,154.735 53.180 C 154.472 53.168,154.116 53.327,153.944 53.535 M142.754 55.745 C 142.771 56.100,142.823 56.127,142.937 55.840 C 143.056 55.540,143.150 55.528,143.313 55.792 C 143.476 56.055,143.570 56.041,143.686 55.738 C 143.782 55.488,143.629 55.317,143.286 55.291 C 142.937 55.265,142.740 55.433,142.754 55.745 M130.850 57.542 C 130.632 57.894,131.185 58.242,131.576 58.000 C 131.904 57.797,131.689 57.269,131.278 57.269 C 131.135 57.269,130.942 57.392,130.850 57.542 M105.362 62.163 C 105.565 62.245,105.656 62.432,105.565 62.580 C 105.473 62.728,105.538 62.849,105.710 62.849 C 105.881 62.849,106.021 62.651,106.021 62.408 C 106.021 62.166,105.789 61.978,105.507 61.991 C 105.197 62.005,105.139 62.073,105.362 62.163 M102.558 63.300 C 102.245 63.655,102.258 63.730,102.632 63.730 C 102.880 63.730,103.084 63.590,103.084 63.419 C 103.084 63.248,103.216 63.189,103.377 63.289 C 103.539 63.389,103.671 63.331,103.671 63.160 C 103.671 62.713,103.002 62.797,102.558 63.300 M93.415 64.537 C 93.429 64.844,93.498 64.904,93.587 64.684 C 93.750 64.280,96.035 64.166,96.035 64.562 C 96.035 64.697,96.211 64.807,96.427 64.807 C 96.642 64.807,96.818 64.630,96.818 64.415 C 96.818 64.134,96.337 64.023,95.105 64.023 C 93.661 64.023,93.396 64.104,93.415 64.537 M66.217 74.024 C 65.938 74.475,66.320 74.766,66.697 74.389 C 66.908 74.179,66.913 74.014,66.713 73.890 C 66.548 73.789,66.325 73.849,66.217 74.024 M302.752 76.752 C 302.931 76.969,303.015 77.235,302.937 77.342 C 302.859 77.450,302.941 77.416,303.119 77.267 C 303.480 76.967,303.224 76.358,302.737 76.358 C 302.523 76.358,302.528 76.483,302.752 76.752 M61.568 83.317 C 61.237 83.648,61.367 83.994,61.821 83.994 C 62.063 83.994,62.261 83.870,62.261 83.718 C 62.261 83.347,61.803 83.082,61.568 83.317 M61.538 91.906 C 61.431 92.080,61.550 92.429,61.804 92.683 C 62.222 93.101,62.256 93.088,62.173 92.541 C 62.055 91.771,61.787 91.503,61.538 91.906 M63.436 103.533 C 63.436 103.771,63.634 103.965,63.877 103.965 C 64.119 103.965,64.317 103.847,64.317 103.702 C 64.317 103.558,64.119 103.364,63.877 103.271 C 63.608 103.168,63.436 103.271,63.436 103.533 M337.782 103.739 C 338.310 104.168,340.675 104.087,340.675 103.640 C 340.675 103.496,340.213 103.377,339.648 103.377 C 339.082 103.377,338.620 103.514,338.620 103.681 C 338.620 103.886,338.404 103.881,337.959 103.665 C 337.386 103.387,337.362 103.397,337.782 103.739 M325.276 105.696 C 325.058 106.049,325.875 106.340,326.456 106.117 C 326.831 105.974,326.845 105.890,326.530 105.690 C 326.017 105.365,325.479 105.368,325.276 105.696 M313.950 107.930 C 313.950 108.172,314.082 108.370,314.244 108.370 C 314.405 108.370,314.537 108.172,314.537 107.930 C 314.537 107.687,314.405 107.489,314.244 107.489 C 314.082 107.489,313.950 107.687,313.950 107.930 M352.717 108.664 C 352.717 108.825,352.915 108.957,353.157 108.957 C 353.399 108.957,353.598 108.825,353.598 108.664 C 353.598 108.502,353.399 108.370,353.157 108.370 C 352.915 108.370,352.717 108.502,352.717 108.664 M67.571 126.661 C 67.584 127.020,67.661 127.147,67.743 126.944 C 67.825 126.741,68.012 126.650,68.160 126.741 C 68.308 126.832,68.429 126.781,68.429 126.627 C 68.429 126.474,68.231 126.272,67.988 126.179 C 67.675 126.058,67.554 126.198,67.571 126.661 M57.269 152.661 C 57.269 152.818,57.478 153.028,57.734 153.126 C 58.020 153.236,58.154 153.170,58.083 152.955 C 57.936 152.516,57.269 152.275,57.269 152.661 M49.927 156.552 C 49.927 156.723,49.794 156.781,49.633 156.681 C 49.471 156.582,49.339 156.640,49.339 156.811 C 49.339 157.260,49.796 157.193,50.220 156.681 C 50.473 156.377,50.484 156.241,50.256 156.241 C 50.075 156.241,49.927 156.381,49.927 156.552 M47.283 158.150 C 47.283 158.392,47.416 158.590,47.577 158.590 C 47.739 158.590,47.871 158.392,47.871 158.150 C 47.871 157.907,47.739 157.709,47.577 157.709 C 47.416 157.709,47.283 157.907,47.283 158.150 M354.948 192.906 C 354.846 193.070,354.906 193.293,355.081 193.401 C 355.532 193.680,355.824 193.298,355.447 192.921 C 355.236 192.710,355.072 192.705,354.948 192.906 M314.635 201.637 C 314.450 202.029,314.410 202.349,314.545 202.349 C 314.801 202.349,315.257 201.209,315.075 201.027 C 315.018 200.970,314.820 201.245,314.635 201.637 M35.603 205.341 C 35.667 205.533,35.877 205.743,36.068 205.806 C 36.283 205.878,36.349 205.744,36.239 205.458 C 36.034 204.924,35.427 204.813,35.603 205.341 M207.847 225.173 C 207.927 225.381,208.096 225.551,208.223 225.551 C 208.350 225.551,208.519 225.381,208.599 225.173 C 208.683 224.953,208.527 224.795,208.223 224.795 C 207.920 224.795,207.763 224.953,207.847 225.173 M165.797 232.581 C 165.716 232.712,165.977 232.819,166.378 232.819 C 166.779 232.819,167.107 232.732,167.107 232.625 C 167.107 232.340,165.969 232.302,165.797 232.581 M161.720 233.348 C 161.920 233.869,162.740 233.809,162.922 233.260 C 162.999 233.030,162.764 232.893,162.295 232.893 C 161.739 232.893,161.591 233.010,161.720 233.348 M154.654 234.284 C 154.339 234.599,154.469 234.949,154.902 234.949 C 155.135 234.949,155.398 234.830,155.488 234.686 C 155.674 234.383,154.919 234.019,154.654 234.284 M47.871 240.204 C 47.871 240.372,48.057 240.439,48.286 240.351 C 48.527 240.258,48.765 240.415,48.856 240.727 C 48.989 241.184,49.003 241.177,48.952 240.679 C 48.891 240.088,47.871 239.640,47.871 240.204 M50.514 242.138 C 50.514 242.185,50.840 242.437,51.239 242.698 C 51.807 243.071,51.930 243.084,51.806 242.761 C 51.676 242.420,50.514 241.860,50.514 242.138 M96.465 243.190 C 96.359 243.361,95.954 243.622,95.566 243.770 C 95.178 243.918,94.860 244.157,94.860 244.302 C 94.860 244.711,96.896 243.660,96.907 243.245 C 96.918 242.796,96.723 242.772,96.465 243.190 " stroke="none" fill="#e87434" fill-rule="evenodd"></path><path id="path3" d="M268.270 33.206 C 268.000 33.643,268.313 33.881,268.875 33.665 C 269.135 33.566,269.265 33.351,269.164 33.189 C 268.926 32.803,268.514 32.811,268.270 33.206 M241.845 37.893 C 241.769 38.017,241.871 38.174,242.072 38.243 C 242.679 38.451,245.228 38.139,245.228 37.857 C 245.228 37.540,242.042 37.574,241.845 37.893 M252.689 37.931 C 252.559 38.141,252.608 38.190,252.818 38.060 C 253.005 37.945,253.157 37.999,253.157 38.179 C 253.157 38.360,253.289 38.426,253.451 38.326 C 253.612 38.226,253.744 38.020,253.744 37.868 C 253.744 37.477,252.940 37.524,252.689 37.931 M291.630 37.724 C 291.630 37.824,291.843 38.232,292.104 38.630 C 292.595 39.378,293.098 39.588,293.098 39.043 C 293.098 38.872,292.966 38.814,292.805 38.913 C 292.643 39.013,292.494 38.955,292.474 38.784 C 292.454 38.613,292.421 38.319,292.401 38.130 C 292.363 37.780,291.630 37.394,291.630 37.724 M233.878 39.422 C 233.574 39.914,234.078 40.056,234.529 39.606 C 234.930 39.205,234.928 39.158,234.509 39.158 C 234.252 39.158,233.968 39.277,233.878 39.422 M222.202 41.332 C 221.819 41.715,222.063 41.909,222.761 41.775 C 223.164 41.698,223.495 41.546,223.495 41.438 C 223.495 41.186,222.434 41.100,222.202 41.332 M215.272 42.505 C 215.514 42.597,215.809 42.818,215.928 42.996 C 216.061 43.195,216.145 43.122,216.148 42.805 C 216.151 42.459,215.936 42.298,215.492 42.314 C 215.050 42.329,214.977 42.393,215.272 42.505 M210.866 43.460 C 211.365 43.789,212.247 43.867,211.936 43.556 C 211.824 43.444,211.438 43.311,211.079 43.261 C 210.561 43.189,210.517 43.230,210.866 43.460 M203.426 44.807 C 203.627 45.331,204.002 45.350,204.195 44.847 C 204.279 44.627,204.113 44.450,203.802 44.426 C 203.447 44.399,203.319 44.529,203.426 44.807 M167.781 50.930 C 167.682 51.105,167.709 51.150,167.841 51.030 C 167.973 50.911,168.264 50.965,168.488 51.150 C 168.795 51.405,168.981 51.400,169.249 51.130 C 169.527 50.850,169.482 50.819,169.041 50.987 C 168.692 51.120,168.548 51.090,168.661 50.906 C 168.762 50.744,168.645 50.612,168.403 50.612 C 168.161 50.612,167.881 50.755,167.781 50.930 M157.166 52.849 C 157.231 53.043,157.379 53.191,157.496 53.179 C 157.847 53.143,157.779 52.740,157.401 52.614 C 157.207 52.549,157.101 52.655,157.166 52.849 M153.944 53.535 C 153.707 53.820,153.765 53.912,154.180 53.912 C 154.482 53.912,154.672 53.820,154.602 53.707 C 154.532 53.594,154.641 53.434,154.844 53.352 C 155.081 53.257,155.042 53.195,154.735 53.180 C 154.472 53.168,154.116 53.327,153.944 53.535 M142.754 55.745 C 142.771 56.100,142.823 56.127,142.937 55.840 C 143.056 55.540,143.150 55.528,143.313 55.792 C 143.476 56.055,143.570 56.041,143.686 55.738 C 143.782 55.488,143.629 55.317,143.286 55.291 C 142.937 55.265,142.740 55.433,142.754 55.745 M130.850 57.542 C 130.632 57.894,131.185 58.242,131.576 58.000 C 131.904 57.797,131.689 57.269,131.278 57.269 C 131.135 57.269,130.942 57.392,130.850 57.542 M105.362 62.163 C 105.565 62.245,105.656 62.432,105.565 62.580 C 105.473 62.728,105.538 62.849,105.710 62.849 C 105.881 62.849,106.021 62.651,106.021 62.408 C 106.021 62.166,105.789 61.978,105.507 61.991 C 105.197 62.005,105.139 62.073,105.362 62.163 M102.558 63.300 C 102.245 63.655,102.258 63.730,102.632 63.730 C 102.880 63.730,103.084 63.590,103.084 63.419 C 103.084 63.248,103.216 63.189,103.377 63.289 C 103.539 63.389,103.671 63.331,103.671 63.160 C 103.671 62.713,103.002 62.797,102.558 63.300 M93.415 64.537 C 93.429 64.844,93.498 64.904,93.587 64.684 C 93.750 64.280,96.035 64.166,96.035 64.562 C 96.035 64.697,96.211 64.807,96.427 64.807 C 96.642 64.807,96.818 64.630,96.818 64.415 C 96.818 64.134,96.337 64.023,95.105 64.023 C 93.661 64.023,93.396 64.104,93.415 64.537 M66.217 74.024 C 65.938 74.475,66.320 74.766,66.697 74.389 C 66.908 74.179,66.913 74.014,66.713 73.890 C 66.548 73.789,66.325 73.849,66.217 74.024 M302.752 76.752 C 302.931 76.969,303.015 77.235,302.937 77.342 C 302.859 77.450,302.941 77.416,303.119 77.267 C 303.480 76.967,303.224 76.358,302.737 76.358 C 302.523 76.358,302.528 76.483,302.752 76.752 M61.568 83.317 C 61.237 83.648,61.367 83.994,61.821 83.994 C 62.063 83.994,62.261 83.870,62.261 83.718 C 62.261 83.347,61.803 83.082,61.568 83.317 M61.538 91.906 C 61.431 92.080,61.550 92.429,61.804 92.683 C 62.222 93.101,62.256 93.088,62.173 92.541 C 62.055 91.771,61.787 91.503,61.538 91.906 M63.436 103.533 C 63.436 103.771,63.634 103.965,63.877 103.965 C 64.119 103.965,64.317 103.847,64.317 103.702 C 64.317 103.558,64.119 103.364,63.877 103.271 C 63.608 103.168,63.436 103.271,63.436 103.533 M337.782 103.739 C 338.310 104.168,340.675 104.087,340.675 103.640 C 340.675 103.496,340.213 103.377,339.648 103.377 C 339.082 103.377,338.620 103.514,338.620 103.681 C 338.620 103.886,338.404 103.881,337.959 103.665 C 337.386 103.387,337.362 103.397,337.782 103.739 M325.276 105.696 C 325.058 106.049,325.875 106.340,326.456 106.117 C 326.831 105.974,326.845 105.890,326.530 105.690 C 326.017 105.365,325.479 105.368,325.276 105.696 M313.950 107.930 C 313.950 108.172,314.082 108.370,314.244 108.370 C 314.405 108.370,314.537 108.172,314.537 107.930 C 314.537 107.687,314.405 107.489,314.244 107.489 C 314.082 107.489,313.950 107.687,313.950 107.930 M352.717 108.664 C 352.717 108.825,352.915 108.957,353.157 108.957 C 353.399 108.957,353.598 108.825,353.598 108.664 C 353.598 108.502,353.399 108.370,353.157 108.370 C 352.915 108.370,352.717 108.502,352.717 108.664 M67.571 126.661 C 67.584 127.020,67.661 127.147,67.743 126.944 C 67.825 126.741,68.012 126.650,68.160 126.741 C 68.308 126.832,68.429 126.781,68.429 126.627 C 68.429 126.474,68.231 126.272,67.988 126.179 C 67.675 126.058,67.554 126.198,67.571 126.661 M57.269 152.661 C 57.269 152.818,57.478 153.028,57.734 153.126 C 58.020 153.236,58.154 153.170,58.083 152.955 C 57.936 152.516,57.269 152.275,57.269 152.661 M49.927 156.552 C 49.927 156.723,49.794 156.781,49.633 156.681 C 49.471 156.582,49.339 156.640,49.339 156.811 C 49.339 157.260,49.796 157.193,50.220 156.681 C 50.473 156.377,50.484 156.241,50.256 156.241 C 50.075 156.241,49.927 156.381,49.927 156.552 M47.283 158.150 C 47.283 158.392,47.416 158.590,47.577 158.590 C 47.739 158.590,47.871 158.392,47.871 158.150 C 47.871 157.907,47.739 157.709,47.577 157.709 C 47.416 157.709,47.283 157.907,47.283 158.150 M354.948 192.906 C 354.846 193.070,354.906 193.293,355.081 193.401 C 355.532 193.680,355.824 193.298,355.447 192.921 C 355.236 192.710,355.072 192.705,354.948 192.906 M314.635 201.637 C 314.450 202.029,314.410 202.349,314.545 202.349 C 314.801 202.349,315.257 201.209,315.075 201.027 C 315.018 200.970,314.820 201.245,314.635 201.637 M35.603 205.341 C 35.667 205.533,35.877 205.743,36.068 205.806 C 36.283 205.878,36.349 205.744,36.239 205.458 C 36.034 204.924,35.427 204.813,35.603 205.341 M207.847 225.173 C 207.927 225.381,208.096 225.551,208.223 225.551 C 208.350 225.551,208.519 225.381,208.599 225.173 C 208.683 224.953,208.527 224.795,208.223 224.795 C 207.920 224.795,207.763 224.953,207.847 225.173 M165.797 232.581 C 165.716 232.712,165.977 232.819,166.378 232.819 C 166.779 232.819,167.107 232.732,167.107 232.625 C 167.107 232.340,165.969 232.302,165.797 232.581 M161.720 233.348 C 161.920 233.869,162.740 233.809,162.922 233.260 C 162.999 233.030,162.764 232.893,162.295 232.893 C 161.739 232.893,161.591 233.010,161.720 233.348 M154.654 234.284 C 154.339 234.599,154.469 234.949,154.902 234.949 C 155.135 234.949,155.398 234.830,155.488 234.686 C 155.674 234.383,154.919 234.019,154.654 234.284 M47.871 240.204 C 47.871 240.372,48.057 240.439,48.286 240.351 C 48.527 240.258,48.765 240.415,48.856 240.727 C 48.989 241.184,49.003 241.177,48.952 240.679 C 48.891 240.088,47.871 239.640,47.871 240.204 M50.514 242.138 C 50.514 242.185,50.840 242.437,51.239 242.698 C 51.807 243.071,51.930 243.084,51.806 242.761 C 51.676 242.420,50.514 241.860,50.514 242.138 M96.465 243.190 C 96.359 243.361,95.954 243.622,95.566 243.770 C 95.178 243.918,94.860 244.157,94.860 244.302 C 94.860 244.711,96.896 243.660,96.907 243.245 C 96.918 242.796,96.723 242.772,96.465 243.190 " stroke="none" fill="#e87434" fill-rule="evenodd"></path><path id="path4" d="M268.270 33.206 C 268.000 33.643,268.313 33.881,268.875 33.665 C 269.135 33.566,269.265 33.351,269.164 33.189 C 268.926 32.803,268.514 32.811,268.270 33.206 M241.845 37.893 C 241.769 38.017,241.871 38.174,242.072 38.243 C 242.679 38.451,245.228 38.139,245.228 37.857 C 245.228 37.540,242.042 37.574,241.845 37.893 M252.689 37.931 C 252.559 38.141,252.608 38.190,252.818 38.060 C 253.005 37.945,253.157 37.999,253.157 38.179 C 253.157 38.360,253.289 38.426,253.451 38.326 C 253.612 38.226,253.744 38.020,253.744 37.868 C 253.744 37.477,252.940 37.524,252.689 37.931 M291.630 37.724 C 291.630 37.824,291.843 38.232,292.104 38.630 C 292.595 39.378,293.098 39.588,293.098 39.043 C 293.098 38.872,292.966 38.814,292.805 38.913 C 292.643 39.013,292.494 38.955,292.474 38.784 C 292.454 38.613,292.421 38.319,292.401 38.130 C 292.363 37.780,291.630 37.394,291.630 37.724 M233.878 39.422 C 233.574 39.914,234.078 40.056,234.529 39.606 C 234.930 39.205,234.928 39.158,234.509 39.158 C 234.252 39.158,233.968 39.277,233.878 39.422 M222.202 41.332 C 221.819 41.715,222.063 41.909,222.761 41.775 C 223.164 41.698,223.495 41.546,223.495 41.438 C 223.495 41.186,222.434 41.100,222.202 41.332 M215.272 42.505 C 215.514 42.597,215.809 42.818,215.928 42.996 C 216.061 43.195,216.145 43.122,216.148 42.805 C 216.151 42.459,215.936 42.298,215.492 42.314 C 215.050 42.329,214.977 42.393,215.272 42.505 M210.866 43.460 C 211.365 43.789,212.247 43.867,211.936 43.556 C 211.824 43.444,211.438 43.311,211.079 43.261 C 210.561 43.189,210.517 43.230,210.866 43.460 M203.426 44.807 C 203.627 45.331,204.002 45.350,204.195 44.847 C 204.279 44.627,204.113 44.450,203.802 44.426 C 203.447 44.399,203.319 44.529,203.426 44.807 M167.781 50.930 C 167.682 51.105,167.709 51.150,167.841 51.030 C 167.973 50.911,168.264 50.965,168.488 51.150 C 168.795 51.405,168.981 51.400,169.249 51.130 C 169.527 50.850,169.482 50.819,169.041 50.987 C 168.692 51.120,168.548 51.090,168.661 50.906 C 168.762 50.744,168.645 50.612,168.403 50.612 C 168.161 50.612,167.881 50.755,167.781 50.930 M157.166 52.849 C 157.231 53.043,157.379 53.191,157.496 53.179 C 157.847 53.143,157.779 52.740,157.401 52.614 C 157.207 52.549,157.101 52.655,157.166 52.849 M153.944 53.535 C 153.707 53.820,153.765 53.912,154.180 53.912 C 154.482 53.912,154.672 53.820,154.602 53.707 C 154.532 53.594,154.641 53.434,154.844 53.352 C 155.081 53.257,155.042 53.195,154.735 53.180 C 154.472 53.168,154.116 53.327,153.944 53.535 M142.754 55.745 C 142.771 56.100,142.823 56.127,142.937 55.840 C 143.056 55.540,143.150 55.528,143.313 55.792 C 143.476 56.055,143.570 56.041,143.686 55.738 C 143.782 55.488,143.629 55.317,143.286 55.291 C 142.937 55.265,142.740 55.433,142.754 55.745 M130.850 57.542 C 130.632 57.894,131.185 58.242,131.576 58.000 C 131.904 57.797,131.689 57.269,131.278 57.269 C 131.135 57.269,130.942 57.392,130.850 57.542 M105.362 62.163 C 105.565 62.245,105.656 62.432,105.565 62.580 C 105.473 62.728,105.538 62.849,105.710 62.849 C 105.881 62.849,106.021 62.651,106.021 62.408 C 106.021 62.166,105.789 61.978,105.507 61.991 C 105.197 62.005,105.139 62.073,105.362 62.163 M102.558 63.300 C 102.245 63.655,102.258 63.730,102.632 63.730 C 102.880 63.730,103.084 63.590,103.084 63.419 C 103.084 63.248,103.216 63.189,103.377 63.289 C 103.539 63.389,103.671 63.331,103.671 63.160 C 103.671 62.713,103.002 62.797,102.558 63.300 M93.415 64.537 C 93.429 64.844,93.498 64.904,93.587 64.684 C 93.750 64.280,96.035 64.166,96.035 64.562 C 96.035 64.697,96.211 64.807,96.427 64.807 C 96.642 64.807,96.818 64.630,96.818 64.415 C 96.818 64.134,96.337 64.023,95.105 64.023 C 93.661 64.023,93.396 64.104,93.415 64.537 M66.217 74.024 C 65.938 74.475,66.320 74.766,66.697 74.389 C 66.908 74.179,66.913 74.014,66.713 73.890 C 66.548 73.789,66.325 73.849,66.217 74.024 M302.752 76.752 C 302.931 76.969,303.015 77.235,302.937 77.342 C 302.859 77.450,302.941 77.416,303.119 77.267 C 303.480 76.967,303.224 76.358,302.737 76.358 C 302.523 76.358,302.528 76.483,302.752 76.752 M61.568 83.317 C 61.237 83.648,61.367 83.994,61.821 83.994 C 62.063 83.994,62.261 83.870,62.261 83.718 C 62.261 83.347,61.803 83.082,61.568 83.317 M61.538 91.906 C 61.431 92.080,61.550 92.429,61.804 92.683 C 62.222 93.101,62.256 93.088,62.173 92.541 C 62.055 91.771,61.787 91.503,61.538 91.906 M63.436 103.533 C 63.436 103.771,63.634 103.965,63.877 103.965 C 64.119 103.965,64.317 103.847,64.317 103.702 C 64.317 103.558,64.119 103.364,63.877 103.271 C 63.608 103.168,63.436 103.271,63.436 103.533 M337.782 103.739 C 338.310 104.168,340.675 104.087,340.675 103.640 C 340.675 103.496,340.213 103.377,339.648 103.377 C 339.082 103.377,338.620 103.514,338.620 103.681 C 338.620 103.886,338.404 103.881,337.959 103.665 C 337.386 103.387,337.362 103.397,337.782 103.739 M325.276 105.696 C 325.058 106.049,325.875 106.340,326.456 106.117 C 326.831 105.974,326.845 105.890,326.530 105.690 C 326.017 105.365,325.479 105.368,325.276 105.696 M313.950 107.930 C 313.950 108.172,314.082 108.370,314.244 108.370 C 314.405 108.370,314.537 108.172,314.537 107.930 C 314.537 107.687,314.405 107.489,314.244 107.489 C 314.082 107.489,313.950 107.687,313.950 107.930 M352.717 108.664 C 352.717 108.825,352.915 108.957,353.157 108.957 C 353.399 108.957,353.598 108.825,353.598 108.664 C 353.598 108.502,353.399 108.370,353.157 108.370 C 352.915 108.370,352.717 108.502,352.717 108.664 M67.571 126.661 C 67.584 127.020,67.661 127.147,67.743 126.944 C 67.825 126.741,68.012 126.650,68.160 126.741 C 68.308 126.832,68.429 126.781,68.429 126.627 C 68.429 126.474,68.231 126.272,67.988 126.179 C 67.675 126.058,67.554 126.198,67.571 126.661 M57.269 152.661 C 57.269 152.818,57.478 153.028,57.734 153.126 C 58.020 153.236,58.154 153.170,58.083 152.955 C 57.936 152.516,57.269 152.275,57.269 152.661 M49.927 156.552 C 49.927 156.723,49.794 156.781,49.633 156.681 C 49.471 156.582,49.339 156.640,49.339 156.811 C 49.339 157.260,49.796 157.193,50.220 156.681 C 50.473 156.377,50.484 156.241,50.256 156.241 C 50.075 156.241,49.927 156.381,49.927 156.552 M47.283 158.150 C 47.283 158.392,47.416 158.590,47.577 158.590 C 47.739 158.590,47.871 158.392,47.871 158.150 C 47.871 157.907,47.739 157.709,47.577 157.709 C 47.416 157.709,47.283 157.907,47.283 158.150 M354.948 192.906 C 354.846 193.070,354.906 193.293,355.081 193.401 C 355.532 193.680,355.824 193.298,355.447 192.921 C 355.236 192.710,355.072 192.705,354.948 192.906 M314.635 201.637 C 314.450 202.029,314.410 202.349,314.545 202.349 C 314.801 202.349,315.257 201.209,315.075 201.027 C 315.018 200.970,314.820 201.245,314.635 201.637 M35.603 205.341 C 35.667 205.533,35.877 205.743,36.068 205.806 C 36.283 205.878,36.349 205.744,36.239 205.458 C 36.034 204.924,35.427 204.813,35.603 205.341 M207.847 225.173 C 207.927 225.381,208.096 225.551,208.223 225.551 C 208.350 225.551,208.519 225.381,208.599 225.173 C 208.683 224.953,208.527 224.795,208.223 224.795 C 207.920 224.795,207.763 224.953,207.847 225.173 M165.797 232.581 C 165.716 232.712,165.977 232.819,166.378 232.819 C 166.779 232.819,167.107 232.732,167.107 232.625 C 167.107 232.340,165.969 232.302,165.797 232.581 M161.720 233.348 C 161.920 233.869,162.740 233.809,162.922 233.260 C 162.999 233.030,162.764 232.893,162.295 232.893 C 161.739 232.893,161.591 233.010,161.720 233.348 M154.654 234.284 C 154.339 234.599,154.469 234.949,154.902 234.949 C 155.135 234.949,155.398 234.830,155.488 234.686 C 155.674 234.383,154.919 234.019,154.654 234.284 M47.871 240.204 C 47.871 240.372,48.057 240.439,48.286 240.351 C 48.527 240.258,48.765 240.415,48.856 240.727 C 48.989 241.184,49.003 241.177,48.952 240.679 C 48.891 240.088,47.871 239.640,47.871 240.204 M50.514 242.138 C 50.514 242.185,50.840 242.437,51.239 242.698 C 51.807 243.071,51.930 243.084,51.806 242.761 C 51.676 242.420,50.514 241.860,50.514 242.138 M96.465 243.190 C 96.359 243.361,95.954 243.622,95.566 243.770 C 95.178 243.918,94.860 244.157,94.860 244.302 C 94.860 244.711,96.896 243.660,96.907 243.245 C 96.918 242.796,96.723 242.772,96.465 243.190 " stroke="none" fill="#e87434" fill-rule="evenodd"></path></g></svg>