<svg xmlns="http://www.w3.org/2000/svg" width="689.637" height="909.918" viewBox="0 0 689.637 909.918">
  <g id="Group_5" data-name="Group 5" transform="translate(-596.271 -176.707)">
    <g id="_03924e4b-49ba-44f2-84e6-e0e77a704476" data-name="03924e4b-49ba-44f2-84e6-e0e77a704476" transform="translate(605.321 1295.164)">
      <path id="Path_2" data-name="Path 2" d="M353.5-692a1.216,1.216,0,0,0,1.6.5c1.4-.9,1.1-1.5-.7-1.5C353.6-693,353.2-692.5,353.5-692Z" transform="translate(-60.378 -82.641)" stroke="#e2dfdb" stroke-width="25.1"/>
      <path id="Path_3" data-name="Path 3" d="M347.4-687.9C346.3-687.9,348.5-688,347.4-687.9Z" transform="translate(-59.154 -83.594)" stroke="#e2dfdb" stroke-width="25.1"/>
      <path id="Path_4" data-name="Path 4" d="M344.5-676c-.3.5-.1,1,.4,1a1.1,1.1,0,0,0,1.1-1c0-.6-.2-1-.4-1C345.3-677,344.8-676.6,344.5-676Z" transform="translate(-58.75 -85.871)" stroke="#e2dfdb" stroke-width="25.1"/>
      <path id="Path_6" data-name="Path 6" d="M146.5-346c.3.5.8,1,1.1,1,.2,0,.4-.5.4-1a1.028,1.028,0,0,0-1.1-1C146.4-347,146.2-346.6,146.5-346Z" transform="translate(-4.209 -151.94)" stroke="#e2dfdb" stroke-width="25.1"/>
      <path id="Path_7" data-name="Path 7" d="M135.6-342.1c-.4.6-.3,1.1.2,1.1s.7,1.1.4,2.5c-.4,2.1-.1,2.5,1.9,2.4,1.6-.1,1.9-.3.7-.6a1.419,1.419,0,0,1-1.2-1.8C138.4-340.4,136.5-343.6,135.6-342.1Z" transform="translate(-0.593 -153.455)" stroke="#e2dfdb" stroke-width="25.1"/>
      <path id="Path_8" data-name="Path 8" d="M138.6-342.1c-.4.5.6,1.9,2,3,2.8,2.2,4.4,2.7,4.4,1.2s-2.9-3.3-4.1-2.5c-.7.4-.9.3-.5-.4a1.2,1.2,0,0,0-.3-1.6A1.019,1.019,0,0,0,138.6-342.1Z" transform="translate(-4.006 -153.314)" stroke="#e2dfdb" stroke-width="25.1"/>
      <path id="Path_9" data-name="Path 9" d="M135-334a1.1,1.1,0,0,0,1.1,1c.5,0,.7-.5.4-1-.3-.6-.8-1-1.1-1C135.2-335,135-334.6,135-334Z" transform="translate(0 -154.342)" stroke="#e2dfdb" stroke-width="25.1"/>
      <path id="Path_10" data-name="Path 10" d="M138.7-332.5c.3.8.9,1.2,1.4.9,1.2-.7,1.1-1.1-.5-1.7C138.6-333.7,138.3-333.4,138.7-332.5Z" transform="translate(-2.748 -154.644)" stroke="#e2dfdb" stroke-width="25.1"/>
      <path id="Path_11" data-name="Path 11" d="M142.1-332.4c0,1.1.3,1.4.6.6a2.026,2.026,0,0,0-.1-1.9C142.3-334.1,142-333.5,142.1-332.4Z" transform="translate(-4.078 -154.644)" stroke="#e2dfdb" stroke-width="25.1"/>
      <path id="Path_12" data-name="Path 12" d="M146.6-273.3c-.6,1.4-.5,1.5.5.6.7-.7,1-1.5.7-1.8S146.9-274.3,146.6-273.3Z" transform="translate(-4.206 -166.508)" stroke="#e2dfdb" stroke-width="25.1"/>
      <path id="Path_13" data-name="Path 13" d="M138.4-200.7c.1,2.1.8,3.2,2.4,3.8,1.3.5,2,1.3,1.7,1.9-.3.5-.1,1,.4,1,.6,0,1.1-.7,1.1-1.5s-.5-1.5-1.1-1.5-.9-.7-.5-1.5c.5-1.5-.9-2.2-1.7-.8-.5,1,.1-1.2.9-3.1.4-1,0-1.4-1.4-1.3C138.7-203.6,138.3-202.9,138.4-200.7Z" transform="translate(-3.997 -197.635)" stroke="#e2dfdb" stroke-width="25.1"/>
      <path id="Path_14" data-name="Path 14" d="M117.7-303.9c-.5,2,.7,6.9,1.7,6.9.2,0,.4-2,.4-4.5C119.8-306.2,118.6-307.5,117.7-303.9Z" transform="translate(0 -161.172)" stroke="#e2dfdb" stroke-width="25.1"/>
      <path id="Path_15" data-name="Path 15" d="M531.3-265.2c-5.5.4-6.1,3.2-.7,3.2,4.5,0,4.2,2.4-.4,2.8-2.4.2-3.2.8-3.2,2.3,0,1.4.7,1.9,2.8,1.9,6.1,0,7.2-.9,7.2-5.6,0-2.3-.3-4.4-.7-4.6A19.4,19.4,0,0,0,531.3-265.2Z" transform="translate(-91.167 -169.569)" stroke="#e2dfdb" stroke-width="25.1"/>
      <path id="Path_16" data-name="Path 16" d="M486.3-265.3c-2.8.3-4.3.9-4.3,1.8,0,1,.9,1.2,3.5.8,3.1-.5,3.5-.3,3.5,1.6,0,1.7-.6,2.1-3.5,2.1-1.9,0-3.5.3-3.5.7.1,2.3,2,3.3,5.8,3l4.2-.2v-5.3c0-2.8-.3-5.1-.7-5C490.8-265.7,488.6-265.5,486.3-265.3Z" transform="translate(-83.338 -169.509)" stroke="#e2dfdb" stroke-width="25.1"/>
      <path id="Path_17" data-name="Path 17" d="M495.3-264.4a2.7,2.7,0,0,0,.4,2.5c1.2,1.2,4.8-1.4,3.9-2.9A2.4,2.4,0,0,0,495.3-264.4Z" transform="translate(-85.052 -168.526)" stroke="#e2dfdb" stroke-width="25.1"/>
      <path id="Path_18" data-name="Path 18" d="M469-264c-2.1.5-2.5,1.2-2.5,4.4,0,4.3,2,6.4,5,5.2,1.7-.6,1.7-.8-.3-2.7-3.1-2.8-2.8-4.2.8-3.7,2,.3,3,0,3-.8C475-263.5,471.9-264.8,469-264Z" transform="translate(-80.487 -169.766)" stroke="#e2dfdb" stroke-width="25.1"/>
      <path id="Path_19" data-name="Path 19" d="M513-260.1c0,5.8,1.1,7,4,4.1,3.4-3.4,2.1-9-2.2-9C513.3-265,513-264.2,513-260.1Z" transform="translate(-88.287 -169.666)" stroke="#e2dfdb" stroke-width="25.1"/>
      <path id="Path_20" data-name="Path 20" d="M288.1-991.3c.7,1,1.5,2,1.6,2.2.2.2.3-.5.3-1.7,0-1.4-.6-2.2-1.6-2.2C287-993,286.9-992.7,288.1-991.3Z" transform="translate(-48.976)" stroke="#e2dfdb" stroke-width="25.1"/>
      <path id="Path_21" data-name="Path 21" d="M252.8-988.3a2.026,2.026,0,0,0,1.9-.1c.4-.3-.2-.6-1.3-.5C252.3-988.9,252-988.6,252.8-988.3Z" transform="translate(-42.935)" stroke="#e2dfdb" stroke-width="25.1"/>
      <path id="Path_22" data-name="Path 22" d="M338.4-948.9a1.6,1.6,0,0,1-2,.5c-.8-.3-1.4-.2-1.4.3,0,1.5,3.8,1.9,5.6.7,1.5-1.2,1.5-1.3.1-1.9A2.033,2.033,0,0,0,338.4-948.9Z" transform="translate(-57.501)" stroke="#e2dfdb" stroke-width="25.1"/>
      <path id="Path_26" data-name="Path 26" d="M245.5-730c-.3.5-.1,1,.4,1a1.1,1.1,0,0,0,1.1-1c0-.6-.2-1-.4-1C246.3-731,245.8-730.6,245.5-730Z" transform="translate(-41.686 -75.06)" stroke="#e2dfdb" stroke-width="25.1"/>
      <path id="Path_35" data-name="Path 35" d="M267.3-393.5c-1,1-.9,1.6.2,2.5,1.3,1,1.5.8,1.5-1.4C269-395.4,268.9-395.4,267.3-393.5Z" transform="translate(-45.391 -142.676)" stroke="#e2dfdb" stroke-width="25.1"/>
      <path id="Path_36" data-name="Path 36" d="M271-389.2a3.069,3.069,0,0,0,1.5,2.6c.9.3,1.5,0,1.5-.8a4.423,4.423,0,0,0-1.5-2.6C271.3-391,271-390.9,271-389.2Z" transform="translate(-46.184 -143.482)" stroke="#e2dfdb" stroke-width="25.1"/>
      <path id="Path_37" data-name="Path 37" d="M265.1-362.7a4.889,4.889,0,0,0,1.4,3.3c.9.9,1.5,1.1,1.5.4,0-.6.5-.8,1-.5,1.6,1,1.2-1.1-.5-2.5-1.3-1.1-1.4-1-.9.4.3.9.3,1.6,0,1.6-.4,0-1.1-1-1.6-2.3C265.3-364.1,265.1-364.2,265.1-362.7Z" transform="translate(-45.271 -149.014)" stroke="#e2dfdb" stroke-width="25.1"/>
      <path id="Path_38" data-name="Path 38" d="M268.5-345.9c-.4.6-.5,1.2-.2,1.5.2.3.7-.2,1-1.1C270-347.2,269.4-347.5,268.5-345.9Z" transform="translate(-45.601 -152.037)" stroke="#e2dfdb" stroke-width="25.1"/>
      <path id="Path_39" data-name="Path 39" d="M276.1-344.4c0,1.1.3,1.4.6.6a2.026,2.026,0,0,0-.1-1.9C276.3-346.1,276-345.5,276.1-344.4Z" transform="translate(-46.932 -152.241)" stroke="#e2dfdb" stroke-width="25.1"/>
      <path id="Path_40" data-name="Path 40" d="M268-336.9c0,.5.5.7,1,.4.6-.3,1-.8,1-1.1,0-.2-.4-.4-1-.4A1.1,1.1,0,0,0,268-336.9Z" transform="translate(-45.609 -153.691)" stroke="#e2dfdb" stroke-width="25.1"/>
      <path id="Path_41" data-name="Path 41" d="M273-335.6c0,.9,3,1.4,3.5.6.4-.6-.3-1-1.4-1C273.9-336,273-335.8,273-335.6Z" transform="translate(-46.564 -154.058)" stroke="#e2dfdb" stroke-width="25.1"/>
      <path id="Path_42" data-name="Path 42" d="M176.6-222.7c.3,1,.9,1.5,1.2,1.2s0-1.1-.7-1.8C176.1-224.2,176-224.1,176.6-222.7Z" transform="translate(-29.773 -176.664)" stroke="#e2dfdb" stroke-width="25.1"/>
      <path id="Path_43" data-name="Path 43" d="M286.4-211.8c0,1,.1,1.8.3,1.8a6.147,6.147,0,0,0,1.2-1.8c.7-1.3.6-1.9-.2-1.9C287-213.7,286.4-212.8,286.4-211.8Z" transform="translate(-48.78 -195.859)" stroke="#e2dfdb" stroke-width="25.1"/>
      <path id="Path_44" data-name="Path 44" d="M292-168a1.1,1.1,0,0,0,1.1,1c.5,0,.7-.5.4-1-.3-.6-.8-1-1.1-1C292.2-169,292-168.6,292-168Z" transform="translate(-49.725 -221.012)" stroke="#e2dfdb" stroke-width="25.1"/>
      <path id="Path_46" data-name="Path 46" d="M163-86a1.075,1.075,0,0,0,1,1,1,1,0,0,0,1-1,.945.945,0,0,0-1-1A1,1,0,0,0,163-86Z" transform="translate(-27.503 -221.012)" stroke="#e2dfdb" stroke-width="25.1"/>
      <path id="Path_47" data-name="Path 47" d="M161.5-35c.3.5.8,1,1.1,1,.2,0,.4-.5.4-1a1.028,1.028,0,0,0-1.1-1C161.4-36,161.2-35.6,161.5-35Z" transform="translate(-12.739 -221.012)" stroke="#e2dfdb" stroke-width="25.1"/>
      <path id="Path_48" data-name="Path 48" d="M163.8-25.3a2.026,2.026,0,0,0,1.9-.1c.4-.3-.2-.6-1.3-.5C163.3-25.9,163-25.6,163.8-25.3Z" transform="translate(-27.58 -221.012)" stroke="#e2dfdb" stroke-width="25.1"/>
      <path id="Path_1" data-name="Path 1" d="M200.894-1104.7c-2.482.64-5.129.96-5.957.72a8.519,8.519,0,0,0-4.467.8,19.544,19.544,0,0,1-5.377,1.2c-2.4,0-8.6,1.12-14.478,2.561-6.287,1.52-16.132,6.241-21.51,10.162-5.377,4-16.215,10.482-17.539,10.482-1.9,0-14.147,6.8-17.539,9.682-12.161,10.482-16.629,15.2-19.193,20.484a47.333,47.333,0,0,1-4.964,8.082c-1.986,2.16-2.4,3.441-2.482,7.2-.331,11.682-.662,15.523-1.489,17.923-2.482,7.2-3.971,24.245-2.482,28.405a26.957,26.957,0,0,1,1.241,6.241,201.546,201.546,0,0,0,2.4,20.8c.579,3.921,1.572,10.082,2.068,13.6s1.406,8.161,1.9,10.242c.745,3.041.662,4.4-.165,6.4-.993,2.16-1.241,3.521-1.655,7.121-.083.4-.827.64-1.737.64-2.068,0-3.309,2.72-2.813,6.081,1.324,8.322,2.4,12.482,4.219,16.323a42.675,42.675,0,0,1,2.813,8.082,34.545,34.545,0,0,0,2.316,7.361,17.183,17.183,0,0,1,1.737,6c0,2.321,1.737,4.641,2.73,3.681.248-.32.993.4,1.489,1.52a3.766,3.766,0,0,0,3.144,2.32c1.737.16,2.068.64,1.9,2.24a3.408,3.408,0,0,1-1.158,2.48c-1.406.88,2.482,2.881,7.859,4,3.392.72,4.633,1.28,4.385,2.08a5.474,5.474,0,0,0,.331,3.121,56.586,56.586,0,0,1,2.068,7.682,33.538,33.538,0,0,0,2.316,7.361,15.63,15.63,0,0,1,1.655,5.2c.5,3.681,2.151,6.161,2.813,4.241.91-2.24,2.068-.8,1.655,1.92a8.752,8.752,0,0,0,1.075,5.841c.91,1.6,2.565,4.881,3.64,7.281,2.234,4.561,5.543,8.8,7.032,8.8.5,0,1.406,1.04,2.151,2.4.745,1.28,1.572,2.4,1.986,2.4s1.158,1.04,1.572,2.4a4.394,4.394,0,0,0,2.978,2.88c1.324.32,2.151,1.04,2.151,2a3.082,3.082,0,0,0,1.655,2.32,9.554,9.554,0,0,1,2.978,3.361c.745,1.44-21.262,30.006-23.247,34.487a10.491,10.491,0,0,1-3.309,4.081c-1.158.72-15.553,8.482-15.884,8.482-.662,0-10.259,7.041-11.417,8.4a12.945,12.945,0,0,1-3.557,2.32,54.216,54.216,0,0,0-7.611,5.521c-4.55,3.841-10.507,8.642-18.283,14.563a16.388,16.388,0,0,0-3.971,4.241c-.827,1.68-16.877,20.964-18.366,20.964-.414,0-2.151,2.08-3.888,4.561-1.737,2.56-4.385,6.241-5.874,8.242a47.962,47.962,0,0,0-4.385,7.2,27.024,27.024,0,0,1-3.557,5.6c-2.068,2.16-6.2,9.442-6.2,10.882a4.78,4.78,0,0,1-1.655,2.32,8.592,8.592,0,0,0-2.151,4c-.248,1.6-2.234,4.561-4.633,7.2-2.316,2.48-4.716,5.841-5.295,7.441s-1.406,2.881-1.82,2.8c-.5-.08-1.241.88-1.82,2.24-.827,1.76-.91,7.6-.414,24.485l.579,22.084L5.486-577c-1.82,1.36-1.986,1.92-1.986,9.682a70.841,70.841,0,0,0,.993,12.642c.579,2.4,1.572,7.841,2.316,12,1.655,9.522,2.565,13.843,3.806,18.4a67.191,67.191,0,0,1,1.241,10.4c.993,23.285,1.9,29.206,8.6,55.611,3.64,14.483,4.3,18.8,3.723,26.725-.5,6.641-.331,8.162,1.075,11.362a16.529,16.529,0,0,0,3.806,5.281c2.813,2.24,3.557,5.761,1.82,9.842-.993,2.561-1.241,4.961-.827,11.362.248,4.561.579,8.4.827,8.562.165.16-.331,1.28-1.075,2.4-.993,1.52-1.406,3.6-1.324,7.682.083,6.8.993,11.762,1.986,11.122.414-.24.745-.08.745.4a4.061,4.061,0,0,0,1.406,2.08c1.241,1.28,1.241,1.6-.414,4.881-1.158,2.24-2.316,3.521-3.309,3.521-3.144,0-4.3,1.92-5.874,9.6a83.478,83.478,0,0,0-1.489,9.842,8.59,8.59,0,0,1-1.986,4.321c-1.82,1.84-1.986,2.641-1.986,10.8,0,7.762.165,8.882,1.489,9.6,1.158.56,1.489,1.36,1.158,2.881-.662,3.121,1.9,11.2,3.723,11.6.827.24,1.737.08,1.986-.4.91-1.44,1.986,1.2,1.986,5.121,0,2.24.414,4,1.075,4.4a4.317,4.317,0,0,1,1.655,2.08,3.976,3.976,0,0,0,1.986,1.84c2.9.88,8.108,3.761,9.183,4.961a5.149,5.149,0,0,1,.5,3.841,19.412,19.412,0,0,0,1.158,7.6,65.115,65.115,0,0,1,2.234,11.522c.331,3.521.993,7.121,1.489,8,.579.88.993,3.441,1.075,5.681a13.816,13.816,0,0,0,.827,5.2c.414.56,1.158,3.841,1.572,7.121l.827,6c63.785.24,591.933.72,591.933-.24.331-5.441,1.324-10.482,2.316-11.6,1.076-1.2,1.158-1.76.331-2.961-.91-1.44-.5-2.08,3.144-5.441,2.234-2.16,4.136-4.241,4.136-4.641s-3.475-2.32-7.611-4.321c-7.446-3.6-9.845-5.6-6.536-5.6a2.946,2.946,0,0,0,2.151-.8,2.585,2.585,0,0,1,2.068-.8c1.241,0,1.655-.8,2.151-3.6.579-4,3.888-7.2,6.122-6.081,3.971,1.92,6.618-1.44,3.309-4.321a4.932,4.932,0,0,1-1.655-2.961,9.31,9.31,0,0,0-1.737-3.841c-2.068-2.721-1.737-4.961,1.324-8.322A7.868,7.868,0,0,0,655-290.384a1,1,0,0,1,.827-1.04c.5,0,.745-.24.662-.64a9.424,9.424,0,0,1,.993-2.961c.827-1.76,1.158-2.08,1.406-1.04.414,1.68,2.73,2.56,2.73,1.12a1.5,1.5,0,0,0-.993-1.44c-1.324-.48-1.241-6,.083-7.281.91-.8,1.076-.56.662,1.04a4.089,4.089,0,0,0,.331,3.2c.662,1.04.91,1.04,1.9-.24a3.783,3.783,0,0,0,.744-3.041,3.3,3.3,0,0,1,.5-2.641c.662-.72.745-2.24.165-4.961a34.276,34.276,0,0,1-.745-6.321c.331-8.722-1.076-18.8-2.647-18.8-.248,0-.414-1.04-.414-2.4-.083-1.84.331-2.4,1.655-2.56.91,0,2.068-.16,2.647-.16,3.144-.32,3.475-6.081.331-6.081-2.482,0-2.647-.96-.414-2.56,1.241-.96,1.985-2.24,1.82-3.2-.165-.8-.414-1.36-.662-1.28-.248.16-1.406-.32-2.482-1.04a17.917,17.917,0,0,0-5.212-1.84c-1.9-.32-3.061-.96-2.813-1.52a1.936,1.936,0,0,0-.91-1.84c-1.158-.8-1.075-.96.5-1.44a2.46,2.46,0,0,0,1.82-2.16c0-1.2.579-1.52,2.978-1.52h3.061l-.579-3.361a10.9,10.9,0,0,0-2.151-4.881,4.956,4.956,0,0,1-1.655-2.16c0-1.44-4.55-4.8-6.453-4.8a2.638,2.638,0,0,1-2.317-1.2c-.248-.64-2.482-2.08-4.881-3.2l-4.385-2L643-390.4c.993-2.16,2.151-4.721,2.482-5.841a9.856,9.856,0,0,1,1.655-3.2,9.857,9.857,0,0,0,1.655-3.2c.331-1.12,1.489-4.241,2.565-6.961a23.355,23.355,0,0,0,1.9-10.8c-.165-4.081.248-6.561,1.158-8.242,1.9-3.281,1.737-4.321-.745-5.2-2.73-1.04-2.316-3.041.91-5.2,1.572-.96,2.4-2.16,2.234-2.961s-.579-1.44-.91-1.44a6.173,6.173,0,0,1-2.068-1.04c-1.324-.96-1.406-1.36-.5-3.041a8.015,8.015,0,0,1,2.151-2.561c.91-.48,1.075-2.56.745-8.962-.165-4.641-.5-8.722-.745-9.122s.083-1.12.745-1.68a3.238,3.238,0,0,0-.827-5.6c-2.482-.96-2.647-1.36-3.227-8a35.2,35.2,0,0,0-.827-6.4,15.331,15.331,0,0,1-.745-4.241c-.248-2.56-.083-2.881,1.241-2.48,1.241.32,1.489,0,1.489-1.92s-.5-2.56-2.4-3.2c-2.647-.88-3.227-2.561-2.813-8.562.248-5.281.662-7.441,1.324-8.082.331-.32.331-1.44.165-2.4-.248-1.04-.579-2.8-.827-3.921s-.827-1.84-1.241-1.6-1.489-.32-2.4-1.28c-1.241-1.36-1.489-2.08-.827-2.881.91-1.04.5-15.6-.827-28.806-.083-.56-.662-.8-1.489-.48-1.241.4-1.324.24-.5-.64,1.489-1.44,1.324-2.561-.166-2-.745.24-1.241,0-1.241-.64a1.85,1.85,0,0,0-.993-1.52c-.827-.24-.827-.72,0-2.08,1.241-2.08,1.241-2.561,0-2.32-.662.16-.993-.48-.827-1.6s-.166-1.76-.91-1.76c-1.158,0-3.061-3.2-3.061-5.281,0-.64-.331-.96-.827-.72-.414.24-.827.08-.827-.32a.9.9,0,0,1,.91-.88c.414,0,.579-.4.248-.88-.827-1.36-.993-6.321-.248-6.321.331,0,1.241.8,1.9,1.76l1.324,1.76v-2.16c0-1.2-.414-2.08-.91-2-.5.16-1.075-.4-1.158-1.2-.248-1.2-.083-1.28.993-.4,1.158.88,1.241.8.662-.96a10.731,10.731,0,0,1-.5-4.321c.083-1.28-.331-2.641-.91-2.961a3.13,3.13,0,0,1-1.158-1.28,15.908,15.908,0,0,0-.993-2.8,5.877,5.877,0,0,1-.5-3.361c.579-1.52-1.82-2.881-5.047-2.881-1.489,0-1.655-2.32-.166-2.881,1.655-.56.745-6.081-.993-5.681-1.406.24-1.406.56-.5,3.761l.579,2-1.572-2a10.087,10.087,0,0,1-1.489-2.4c-.331-2.48-1.572-5.6-2.151-5.6-.414,0-.745-.48-.745-1.04a9.643,9.643,0,0,0-1.158-3.121c-.91-1.6-.91-2.24-.248-2.561.579-.16,0-.4-1.241-.4-2.151-.08-2.151-.08-.91-2.561.993-1.84,1.075-2.641.331-3.041-.579-.32-1.075-1.92-1.158-3.521a15.583,15.583,0,0,0-3.061-6.721c-2.316-3.041-2.9-4.641-2.9-7.441,0-3.361-.166-3.6-2.068-3.361-2.565.24-6.618-1.36-6.618-2.641a1.888,1.888,0,0,0-1.324-1.52,1.237,1.237,0,0,1-.827-1.68,2.237,2.237,0,0,0-.662-2.16,55.406,55.406,0,0,1-3.309-4.481,43.3,43.3,0,0,0-3.64-5.041,76.478,76.478,0,0,1-5.957-7.6,61.054,61.054,0,0,0-4.716-5.6c-2.647-2.641-3.557-4.081-1.9-3.121.5.24.827-.08.827-.8,0-1.12.331-1.04,2.151.32,2.565,1.92,3.64,2.08,3.64.64s-6.2-6.961-7.777-6.961a2.944,2.944,0,0,1-2.151-1.6,2.064,2.064,0,0,0-2.813-1.12,3.614,3.614,0,0,1-3.061-.64c-5.295-4.8-11.83-8.162-14.726-7.442a37.827,37.827,0,0,1-5.295.88,6.588,6.588,0,0,1-2.484-.073l-.145-.071.395-1.056a5.588,5.588,0,0,1,3.64-2c4.55-.8,5.129-2.961.993-3.2-1.737-.08-2.151-.48-2.151-2.32,0-2.16.165-2.24,2.73-1.84,1.986.4,2.234.32.993-.24a8.017,8.017,0,0,1-2.813-2c-.827-.96-2.647-1.28-8.025-1.28-6.867,0-8.356-.64-5.46-2.4,1.158-.72.993-.8-.91-.4s-2.482.16-2.813-1.2a2.316,2.316,0,0,0-2.482-1.6c-1.655,0-1.985.32-1.489,1.36.414,1.2.331,1.28-.579.4s-.827-1.28.5-2.16c.827-.64,1.241-1.44.993-1.84a.846.846,0,0,1,.5-1.2c.579-.24,0-.48-1.406-.56-1.406,0-3.64-1.04-5.378-2.4a9.738,9.738,0,0,0-4.964-2.4,2.894,2.894,0,0,1-2.9-1.84c-.5-.96-1.324-1.84-1.82-1.84-.579-.08-1.406-.16-1.9-.24-.414,0-.827-.56-.827-1.2,0-1.36-1.241-2.24-3.392-2.4a9.026,9.026,0,0,1-3.64-1.92c-3.309-2.8-12.658-7.521-13.65-6.961-.414.24-.827.16-.827-.24,0-1.04-3.888-2.561-6.536-2.561a5.177,5.177,0,0,1-3.392-1.2,3.514,3.514,0,0,0-2.068-1.2,4.919,4.919,0,0,1-2.4-1.52,9.084,9.084,0,0,0-4.716-2.08c-1.737-.32-3.061-.88-2.73-1.28.248-.4-.745-.72-2.068-.72-1.655,0-2.565-.4-2.565-1.12,0-1.68-2.068-2.961-5.543-3.281-1.655-.16-3.226-.64-3.392-1.12a1.615,1.615,0,0,0-1.489-.88c-.662,0-1.241-.4-1.241-.8-.083-.48-.165-1.2-.248-1.6a.707.707,0,0,0-.827-.72,1.561,1.561,0,0,1-1.241-.8,7.171,7.171,0,0,0-3.309-1.28c-3.475-.56-5.874-1.76-5.874-2.881,0-.48-.5-.72-.993-.48a7.222,7.222,0,0,1-3.723-1.12c-2.565-1.44-2.73-1.44-2.813-.08,0,1.04-.165,1.04-.745-.32-.662-1.76-3.309-3.281-3.309-2a1.37,1.37,0,0,0,.662,1.12c.331.16.083.16-.5,0-.662-.08-1.655-.24-2.234-.24a1.921,1.921,0,0,1-1.572-1.28c-.414-1.12-.331-1.2.745-.32,1.737,1.36,2.565.4,1.076-1.12a5.237,5.237,0,0,0-3.475-.96,3.829,3.829,0,0,1-2.647-.4c-.248-.4-1.241-.64-2.234-.64-1.406.08-1.489.16-.331.48.745.16,1.406.64,1.406,1.04s.993,1.28,2.316,1.92l2.234,1.12-2.4.64c-2.316.56-3.971-.48-4.881-3.2-.165-.48-1.324-.8-2.482-.64-1.737.08-2.234-.24-2.234-1.44,0-1.6-.745-1.92-3.64-1.6-.91.08-1.324-.24-.91-.8.414-.64-.248-.8-2.4-.48-1.737.32-2.978.16-2.978-.32s-.579-.8-1.324-.8a6.143,6.143,0,0,1-3.226-1.92,5.954,5.954,0,0,0-4.385-1.92,9.7,9.7,0,0,1-4.964-1.68,11.026,11.026,0,0,0-3.475-1.68c-.579,0-.827-.56-.5-1.2.248-.72,0-1.2-.827-1.2-.745,0-.993-.4-.662-.96.414-.64.165-.72-.91-.32a3.385,3.385,0,0,1-3.227-.96,18.482,18.482,0,0,0-4.054-2.4c-2.234-.96-2.316-.88-1.737.8a33.786,33.786,0,0,1,.827,3.441,4.258,4.258,0,0,0,.331,1.6,8.376,8.376,0,0,1,.5,2.24l.248,2.32-1.655-1.84a6.47,6.47,0,0,1-1.572-3.121,5.478,5.478,0,0,0-2.068-3.041,5.479,5.479,0,0,1-2.068-3.041c0-.64-.331-1.04-.662-.8-.414.24-1.572-1.04-2.565-2.72-1.158-1.92-2.482-3.2-3.392-3.2-1.324,0-1.489.48-1.241,3.2a14.941,14.941,0,0,0,.745,3.921.861.861,0,0,1-.331,1.28c-.5.24-1.076-.08-1.324-.72a1.925,1.925,0,0,0-1.655-1.28,1.2,1.2,0,0,1-1.158-1.28c0-.8-.5-1.12-1.241-.88a1.334,1.334,0,0,1-1.655-.24c-.331-.48-.083-.8.331-.8,1.572,0,.993-2.32-.745-3.2-.91-.48-1.655-1.2-1.655-1.68a3.233,3.233,0,0,0-1.158-1.92c-.993-.96-1.324-.8-2.234,1.28-.827,2-.827,2.56.083,3.121a2.333,2.333,0,0,0,1.82.32c.331-.24.662,0,.662.4,0,.48-.579.88-1.241.88s-1.241.32-1.241.8a.8.8,0,0,1-.662.8c-.993,0-2.647-5.441-1.737-5.761.414-.16.083-1.6-.745-3.2-.745-1.68-1.82-2.881-2.4-2.641-.745.24-1.075-.48-1.075-1.92,0-1.36-.5-2.48-1.324-2.8-.662-.24-.993-.16-.745.32.745,1.2-.165.96-2.482-.48a4.186,4.186,0,0,1-2.068-3.2c0-1.6-.414-1.92-2.4-1.92-3.144,0-6.453-3.921-7.2-8.4a16.022,16.022,0,0,0-6.949-11.2c-4.881-3.281-9.183,2-9.1-7.281,0-6.321-.248-8.4-1.241-9.362a4.8,4.8,0,0,1-1.241-2.721c.083-1.36.165-1.36,1.241.08,1.158,1.44,1.241,1.2,1.241-2.721,0-3.2,6.453-37.767,4.467-37.447-2.316.4,2.813,1.44,3.806,1.44a26.155,26.155,0,0,0,4.385-2.48c5.295-3.361,6.122-18.884,6.618-17.123.91,3.2.91,3.121,1.9-4.4a43.5,43.5,0,0,0-1.324-19.124c-.745-2.721-1.324-3.441-3.309-3.841-3.723-.72-4.8-5.441-5.212-24.725-.165-8.882-.579-16.563-.91-16.963a56.31,56.31,0,0,1-1.324-8.722,89.984,89.984,0,0,0-2.068-12.242c-2.565-8.562-3.144-12.482-2.978-21.124.165-7.842,0-8.8-1.489-10.162a5.163,5.163,0,0,1-1.737-3.281,13.364,13.364,0,0,0-1.986-4.961,31.782,31.782,0,0,1-2.9-6.721c-.91-3.121-5.212-8.962-7.115-9.682a35.063,35.063,0,0,1-4.964-4.481,47.254,47.254,0,0,0-6.039-5.121,6.442,6.442,0,0,1-2.73-3.281c-1.075-2.8-5.626-5.041-13.816-6.881-5.129-1.12-6.2-1.68-7.28-3.6-1.406-2.641-5.047-4.721-8.438-4.721a27.544,27.544,0,0,1-13.816-4.8c-2.9-2.24-3.226-2.32-5.46-1.2-3.309,1.68-5.874,1.52-11.5-.8-3.971-1.6-6.2-2-11.748-1.921A55.572,55.572,0,0,0,200.894-1104.7Zm-3.806,2.72C196.84-1101.582,197.419-1102.462,197.088-1101.982Zm123.6,156.83c-.414,0,.331-1.6.579-1.6C321.431-946.752,321.183-945.151,320.686-945.151ZM353.53-802.644c1.572,1.68,1.572,1.68-.745.64-1.241-.56-2.234-1.28-2.234-1.68C350.552-804.8,351.876-804.4,353.53-802.644Zm28.211,40.088c-.248.64-.5.4-.5-.48C381.162-763.916,381.989-763.116,381.741-762.556Zm.827,6.4c-.248.64-.5.4-.5-.48C381.989-757.515,382.817-756.715,382.569-756.155Zm133.113,24.4c-.827.8-1.572-.4-.827-1.44.5-.88.662-.88.993,0A1.622,1.622,0,0,1,515.681-731.75Zm17.7,13.043a.894.894,0,0,1-.91.8c-.414,0-.579-.4-.331-.8C532.392-719.188,533.385-719.188,533.385-718.707Zm4.881,16.563a3.557,3.557,0,0,1,1.985-1.36C540.748-703.5,537.492-701.165,538.266-702.144ZM577.232-691.5a.875.875,0,0,1-.827-.8.816.816,0,0,1,.827-.8C577.728-693.1,577.728-691.5,577.232-691.5ZM609-650.694c-.414.4-.827-.24-.91-1.44C608.007-653.895,609.331-651.014,609-650.694Zm9.6,27.285c0,.32-.579.48-1.241.24-.662-.32-.662-1.68,0-1.44C618.018-624.289,618.6-623.809,618.6-623.409Zm11.665,20.724ZM10.532-551.8c0,.64-.331.96-.827.72a2.228,2.228,0,0,1-.827-1.68c0-.64.414-.96.827-.72A1.991,1.991,0,0,1,10.532-551.8ZM407.3-477.7c.331,1.04-.248,1.68-1.9,2.4-1.241.48-6.37,4.081-9.018,3.121-2.73-.96-8.935,2.32-10.589,2.32a4.7,4.7,0,0,0-4.385,2.08c-1.406,1.84-17.621,4.561-17.621,14.083,0,3.121,9.348,3.841,12.823-.88q3.723-5.4,4.964-1.68c.827,2.56,2.647,1.92,5.377-1.92,3.309-4.721,4.054-5.041,5.874-2.8l1.489,1.92,4.964-5.041c7.942-8.162,8.935-6.561,1.241,23.2-4.467.24-12.823.88-18.531,1.36s-13.568,1.12-17.539,1.44C357.17-450.1,407.057-478.421,407.3-477.7Zm-50.962-2.32c0,.48-5.791,33.606-5.791,38.407l-5.377,4.961a26.787,26.787,0,0,1-5.791.24c-.331-.32-2.9-27.605-2.9-30.726,0-.48,2.9-2.961,6.453-5.521,3.475-2.561,7.528-5.521,8.852-6.481C354.606-481.221,356.343-481.541,356.343-480.021Zm16.132,21.364c.745,1.12-3.226,1.92-2.565.32C370.407-459.617,371.731-459.857,372.475-458.657Zm102.833,26.565c-.248,7.2-1.572,9.042-2.978,4.081-.827-3.041-.827-3.041-.91-.56-.083,2.72-1.9,4.8-3.392,3.921a1.819,1.819,0,0,1-.414-2,1.819,1.819,0,0,0-.414-2c-.5-.32-1.075.48-1.324,1.92-.662,3.121-2.813,3.281-2.813.24,0-1.2-.248-4-.5-6.241-.5-3.921,5.791-4.641,4.964-3.441-.5.88,1.075,3.121,2.234,3.121.414,0,.745-.56.745-1.28,0-2.16,1.655-4.321,3.392-4.321C475.391-438.653,475.557-438.173,475.309-432.092Zm-27.549,1.04-.248,4.241c-.248,3.681-.414,4.161-1.489,3.281-.91-.72-1.489-.72-2.151-.08-1.324,1.28-7.528,1.2-8.769,0-.579-.56-.993-3.281-.993-6.481,7.446-5.2,14.478-4.641,16.3-2.24,1.406,2,2.73,1.52,2.151-.72C452.31-433.932,451.731-424.57,447.76-431.052Zm12.658.64c.248,5.2.083,6.161-.993,6.161a1.4,1.4,0,0,1-1.324-1.52c0-.8-.248-3.681-.579-6.481-.414-4.561-.331-4.961.993-4.721S460.086-435.693,460.417-430.412Zm-44.922,1.44c-.91,2.48-.91,2.961.331,3.681.993.64,1.076,1.12.331,1.84-1.324,1.36-2.482.4-3.144-2.4-.662-2.881-2.9-3.281-2.9-.48a4.253,4.253,0,0,1-1.241,2.881c-.91.72-1.241.72-1.241.08,0-.72-.414-.72-1.655-.08a12.289,12.289,0,0,1-5.212.64l-3.475-.24-.248-6.161-.248-6.161,4.385-.24C403.582-435.773,416.074-430.652,415.495-428.971Zm-22.668-5.681a3.449,3.449,0,0,1,1.572,3.2c0,1.2.414,2.4.827,2.56,1.324.4-.662,5.281-2.482,6.241a6.971,6.971,0,0,1-7.032-.48C383.975-424.25,390.262-435.933,392.827-434.652Zm32.43,12c-1.572,0-1.82-.56-2.316-5.2C422.61-430.652,432.041-422.73,425.257-422.65Zm-43.93-11.042c.827,2.321.745,10.4-.165,11.442-1.986,2.24-2.4-9.2-4.219-9.2-3.309,0-5.708.96-5.708,2.08,0,.72.993,1.12,2.9,1.12,1.986,0,2.9.4,2.9,1.2s-.827,1.2-2.4,1.2c-2.151,0-2.482.32-2.73,2.561-.331,3.6-1.986,3.681-2.647.08-.662-4.241-.662-10.8.165-10.4.414.32,8.025-.32,11-.96C380.748-434.572,381.162-434.172,381.327-433.692Zm-25.4,1.6a65.911,65.911,0,0,1,.579,6.8c.248,4.961.083,5.841-1.076,5.841-1.076,0-1.406-1.2-1.82-6.081-.331-3.361-.331-6.4-.083-6.8A1.3,1.3,0,0,1,355.929-432.092Zm5.543,2.8c.082,2.15.331,5.041.331,5.041l.248,1.76a4.471,4.471,0,0,0,2.316-.24c1.655-.56,2.482-.48,3.392.4.993.96.993,1.2-.331,1.92a13.483,13.483,0,0,1-4.881.64l-3.309-.08-.248-6.641c-.165-5.441,0-6.561,1.076-6.561C360.976-433.052,361.307-432.092,361.472-429.291Zm-18.2.16c-.331,2.641-.248,2.721,2.151,2.24q2.482-.48,2.978.48c.248.56.165-.56-.083-2.48-.331-2.721-.248-3.361.827-3.361,1.406,0,2.068,2.24,2.4,8.8.165,3.521,0,4.4-1.076,4.641-.993.16-1.489-.56-1.9-2.561-.5-2.48-.91-2.881-2.9-2.881-2.234,0-2.316.16-1.986,2.721.248,2,0,2.8-1.076,3.2a2.978,2.978,0,0,1-1.572.32c-.579-.56-1.241-12.723-.827-13.443a1.95,1.95,0,0,1,1.9-.64C343.189-431.932,343.437-431.132,343.272-429.131Z" transform="translate(0 0)" fill="rgba(226,223,219,0.78)" stroke="rgba(226,223,219,0.6)" stroke-width="25.1"/>
    </g>
  </g>
</svg>
