<svg xmlns="http://www.w3.org/2000/svg" width="444.863" height="221.958" viewBox="0 0 444.863 221.958">
  <g id="Group_21" data-name="Group 21" transform="translate(-397.221 -157.242)">
    <g id="Group_23" data-name="Group 23">
      <path id="Path_49" data-name="Path 49" d="M15.747,0h397.1c8.7,0,15.747,5.513,15.747,12.313V165.821c0,6.8-7.05,12.313-15.747,12.313H15.747C7.05,178.134,0,172.621,0,165.821V12.313C0,5.513,7.05,0,15.747,0Z" transform="matrix(0.995, 0.105, -0.105, 0.995, 415.841, 157.242)" fill="#72d4ba"/>
      <text id="MY_PROJECTS" data-name="MY PROJECTS" transform="matrix(0.995, 0.105, -0.105, 0.995, 432.457, 301.308)" fill="#2b2c2f" stroke="#2e3034" stroke-width="2" font-size="53" font-family="Gilroy-ExtraBold, Gilroy" font-weight="800" letter-spacing="0.035em"><tspan x="0" y="0">MY PROJECTS</tspan></text>
      <g id="Group_22" data-name="Group 22" transform="translate(2.676 5.977)">
        <g id="Path_86" data-name="Path 86" transform="translate(439.719 175.797) rotate(6)" fill="none" opacity="0.1">
          <path d="M28.5,0A28.5,28.5,0,1,1,0,28.5,28.5,28.5,0,0,1,28.5,0Z" stroke="none"/>
          <path d="M 28.5 4 C 25.19075584411621 4 21.98262405395508 4.647220611572266 18.9647216796875 5.923690795898438 C 16.04775619506836 7.157455444335938 13.42721176147461 8.924556732177734 11.17587661743164 11.17587661743164 C 8.924556732177734 13.42721176147461 7.157455444335938 16.04775619506836 5.923690795898438 18.9647216796875 C 4.647220611572266 21.98262405395508 4 25.19075584411621 4 28.5 C 4 31.80924415588379 4.647220611572266 35.01736450195312 5.923690795898438 38.0352783203125 C 7.157455444335938 40.95224380493164 8.924556732177734 43.57278823852539 11.17587661743164 45.82411193847656 C 13.42721176147461 48.07544326782227 16.04775619506836 49.84253311157227 18.9647216796875 51.07630920410156 C 21.98262405395508 52.35277938842773 25.19075584411621 53 28.5 53 C 31.80924415588379 53 35.01736450195312 52.35277938842773 38.0352783203125 51.07630920410156 C 40.95224380493164 49.84253311157227 43.57278823852539 48.07544326782227 45.82411193847656 45.82411193847656 C 48.07544326782227 43.57278823852539 49.84253311157227 40.95224380493164 51.07630920410156 38.0352783203125 C 52.35277938842773 35.01736450195312 53 31.80924415588379 53 28.5 C 53 25.19075584411621 52.35277938842773 21.98262405395508 51.07630920410156 18.9647216796875 C 49.84253311157227 16.04775619506836 48.07544326782227 13.42721176147461 45.82411193847656 11.17587661743164 C 43.57278823852539 8.924556732177734 40.95224380493164 7.157455444335938 38.0352783203125 5.923690795898438 C 35.01736450195312 4.647220611572266 31.80924415588379 4 28.5 4 M 28.5 0 C 44.2401123046875 0 57 12.7598762512207 57 28.5 C 57 44.2401123046875 44.2401123046875 57 28.5 57 C 12.7598762512207 57 0 44.2401123046875 0 28.5 C 0 12.7598762512207 12.7598762512207 0 28.5 0 Z" stroke="none" fill="#2b2c2f"/>
        </g>
        <g id="Path_86-2" data-name="Path 86" transform="translate(474.527 179.455) rotate(6)" fill="none" opacity="0.2">
          <path d="M28.5,0A28.5,28.5,0,1,1,0,28.5,28.5,28.5,0,0,1,28.5,0Z" stroke="none"/>
          <path d="M 28.5 4 C 25.19075584411621 4 21.98262405395508 4.647220611572266 18.9647216796875 5.923690795898438 C 16.04775619506836 7.157455444335938 13.42721176147461 8.924556732177734 11.17587661743164 11.17587661743164 C 8.924556732177734 13.42721176147461 7.157455444335938 16.04775619506836 5.923690795898438 18.9647216796875 C 4.647220611572266 21.98262405395508 4 25.19075584411621 4 28.5 C 4 31.80924415588379 4.647220611572266 35.01736450195312 5.923690795898438 38.0352783203125 C 7.157455444335938 40.95224380493164 8.924556732177734 43.57278823852539 11.17587661743164 45.82411193847656 C 13.42721176147461 48.07544326782227 16.04775619506836 49.84253311157227 18.9647216796875 51.07630920410156 C 21.98262405395508 52.35277938842773 25.19075584411621 53 28.5 53 C 31.80924415588379 53 35.01736450195312 52.35277938842773 38.0352783203125 51.07630920410156 C 40.95224380493164 49.84253311157227 43.57278823852539 48.07544326782227 45.82411193847656 45.82411193847656 C 48.07544326782227 43.57278823852539 49.84253311157227 40.95224380493164 51.07630920410156 38.0352783203125 C 52.35277938842773 35.01736450195312 53 31.80924415588379 53 28.5 C 53 25.19075584411621 52.35277938842773 21.98262405395508 51.07630920410156 18.9647216796875 C 49.84253311157227 16.04775619506836 48.07544326782227 13.42721176147461 45.82411193847656 11.17587661743164 C 43.57278823852539 8.924556732177734 40.95224380493164 7.157455444335938 38.0352783203125 5.923690795898438 C 35.01736450195312 4.647220611572266 31.80924415588379 4 28.5 4 M 28.5 0 C 44.2401123046875 0 57 12.7598762512207 57 28.5 C 57 44.2401123046875 44.2401123046875 57 28.5 57 C 12.7598762512207 57 0 44.2401123046875 0 28.5 C 0 12.7598762512207 12.7598762512207 0 28.5 0 Z" stroke="none" fill="#2b2c2f"/>
        </g>
        <g id="Path_86-3" data-name="Path 86" transform="translate(509.335 183.114) rotate(6)" fill="none" opacity="0.3">
          <path d="M28.5,0A28.5,28.5,0,1,1,0,28.5,28.5,28.5,0,0,1,28.5,0Z" stroke="none"/>
          <path d="M 28.5 4 C 25.19075584411621 4 21.98262405395508 4.647220611572266 18.9647216796875 5.923690795898438 C 16.04775619506836 7.157455444335938 13.42721176147461 8.924556732177734 11.17587661743164 11.17587661743164 C 8.924556732177734 13.42721176147461 7.157455444335938 16.04775619506836 5.923690795898438 18.9647216796875 C 4.647220611572266 21.98262405395508 4 25.19075584411621 4 28.5 C 4 31.80924415588379 4.647220611572266 35.01736450195312 5.923690795898438 38.0352783203125 C 7.157455444335938 40.95224380493164 8.924556732177734 43.57278823852539 11.17587661743164 45.82411193847656 C 13.42721176147461 48.07544326782227 16.04775619506836 49.84253311157227 18.9647216796875 51.07630920410156 C 21.98262405395508 52.35277938842773 25.19075584411621 53 28.5 53 C 31.80924415588379 53 35.01736450195312 52.35277938842773 38.0352783203125 51.07630920410156 C 40.95224380493164 49.84253311157227 43.57278823852539 48.07544326782227 45.82411193847656 45.82411193847656 C 48.07544326782227 43.57278823852539 49.84253311157227 40.95224380493164 51.07630920410156 38.0352783203125 C 52.35277938842773 35.01736450195312 53 31.80924415588379 53 28.5 C 53 25.19075584411621 52.35277938842773 21.98262405395508 51.07630920410156 18.9647216796875 C 49.84253311157227 16.04775619506836 48.07544326782227 13.42721176147461 45.82411193847656 11.17587661743164 C 43.57278823852539 8.924556732177734 40.95224380493164 7.157455444335938 38.0352783203125 5.923690795898438 C 35.01736450195312 4.647220611572266 31.80924415588379 4 28.5 4 M 28.5 0 C 44.2401123046875 0 57 12.7598762512207 57 28.5 C 57 44.2401123046875 44.2401123046875 57 28.5 57 C 12.7598762512207 57 0 44.2401123046875 0 28.5 C 0 12.7598762512207 12.7598762512207 0 28.5 0 Z" stroke="none" fill="#2b2c2f"/>
        </g>
        <g id="Path_86-4" data-name="Path 86" transform="translate(544.144 186.772) rotate(6)" fill="none" opacity="0.4">
          <path d="M28.5,0A28.5,28.5,0,1,1,0,28.5,28.5,28.5,0,0,1,28.5,0Z" stroke="none"/>
          <path d="M 28.5 4 C 25.19075584411621 4 21.98262405395508 4.647220611572266 18.9647216796875 5.923690795898438 C 16.04775619506836 7.157455444335938 13.42721176147461 8.924556732177734 11.17587661743164 11.17587661743164 C 8.924556732177734 13.42721176147461 7.157455444335938 16.04775619506836 5.923690795898438 18.9647216796875 C 4.647220611572266 21.98262405395508 4 25.19075584411621 4 28.5 C 4 31.80924415588379 4.647220611572266 35.01736450195312 5.923690795898438 38.0352783203125 C 7.157455444335938 40.95224380493164 8.924556732177734 43.57278823852539 11.17587661743164 45.82411193847656 C 13.42721176147461 48.07544326782227 16.04775619506836 49.84253311157227 18.9647216796875 51.07630920410156 C 21.98262405395508 52.35277938842773 25.19075584411621 53 28.5 53 C 31.80924415588379 53 35.01736450195312 52.35277938842773 38.0352783203125 51.07630920410156 C 40.95224380493164 49.84253311157227 43.57278823852539 48.07544326782227 45.82411193847656 45.82411193847656 C 48.07544326782227 43.57278823852539 49.84253311157227 40.95224380493164 51.07630920410156 38.0352783203125 C 52.35277938842773 35.01736450195312 53 31.80924415588379 53 28.5 C 53 25.19075584411621 52.35277938842773 21.98262405395508 51.07630920410156 18.9647216796875 C 49.84253311157227 16.04775619506836 48.07544326782227 13.42721176147461 45.82411193847656 11.17587661743164 C 43.57278823852539 8.924556732177734 40.95224380493164 7.157455444335938 38.0352783203125 5.923690795898438 C 35.01736450195312 4.647220611572266 31.80924415588379 4 28.5 4 M 28.5 0 C 44.2401123046875 0 57 12.7598762512207 57 28.5 C 57 44.2401123046875 44.2401123046875 57 28.5 57 C 12.7598762512207 57 0 44.2401123046875 0 28.5 C 0 12.7598762512207 12.7598762512207 0 28.5 0 Z" stroke="none" fill="#2b2c2f"/>
        </g>
        <g id="Path_86-5" data-name="Path 86" transform="translate(578.952 190.431) rotate(6)" fill="none" opacity="0.5">
          <path d="M28.5,0A28.5,28.5,0,1,1,0,28.5,28.5,28.5,0,0,1,28.5,0Z" stroke="none"/>
          <path d="M 28.5 4 C 25.19075584411621 4 21.98262405395508 4.647220611572266 18.9647216796875 5.923690795898438 C 16.04775619506836 7.157455444335938 13.42721176147461 8.924556732177734 11.17587661743164 11.17587661743164 C 8.924556732177734 13.42721176147461 7.157455444335938 16.04775619506836 5.923690795898438 18.9647216796875 C 4.647220611572266 21.98262405395508 4 25.19075584411621 4 28.5 C 4 31.80924415588379 4.647220611572266 35.01736450195312 5.923690795898438 38.0352783203125 C 7.157455444335938 40.95224380493164 8.924556732177734 43.57278823852539 11.17587661743164 45.82411193847656 C 13.42721176147461 48.07544326782227 16.04775619506836 49.84253311157227 18.9647216796875 51.07630920410156 C 21.98262405395508 52.35277938842773 25.19075584411621 53 28.5 53 C 31.80924415588379 53 35.01736450195312 52.35277938842773 38.0352783203125 51.07630920410156 C 40.95224380493164 49.84253311157227 43.57278823852539 48.07544326782227 45.82411193847656 45.82411193847656 C 48.07544326782227 43.57278823852539 49.84253311157227 40.95224380493164 51.07630920410156 38.0352783203125 C 52.35277938842773 35.01736450195312 53 31.80924415588379 53 28.5 C 53 25.19075584411621 52.35277938842773 21.98262405395508 51.07630920410156 18.9647216796875 C 49.84253311157227 16.04775619506836 48.07544326782227 13.42721176147461 45.82411193847656 11.17587661743164 C 43.57278823852539 8.924556732177734 40.95224380493164 7.157455444335938 38.0352783203125 5.923690795898438 C 35.01736450195312 4.647220611572266 31.80924415588379 4 28.5 4 M 28.5 0 C 44.2401123046875 0 57 12.7598762512207 57 28.5 C 57 44.2401123046875 44.2401123046875 57 28.5 57 C 12.7598762512207 57 0 44.2401123046875 0 28.5 C 0 12.7598762512207 12.7598762512207 0 28.5 0 Z" stroke="none" fill="#2b2c2f"/>
        </g>
        <g id="Path_86-6" data-name="Path 86" transform="translate(613.76 194.089) rotate(6)" fill="none" opacity="0.6">
          <path d="M28.5,0A28.5,28.5,0,1,1,0,28.5,28.5,28.5,0,0,1,28.5,0Z" stroke="none"/>
          <path d="M 28.5 4 C 25.19075584411621 4 21.98262405395508 4.647220611572266 18.9647216796875 5.923690795898438 C 16.04775619506836 7.157455444335938 13.42721176147461 8.924556732177734 11.17587661743164 11.17587661743164 C 8.924556732177734 13.42721176147461 7.157455444335938 16.04775619506836 5.923690795898438 18.9647216796875 C 4.647220611572266 21.98262405395508 4 25.19075584411621 4 28.5 C 4 31.80924415588379 4.647220611572266 35.01736450195312 5.923690795898438 38.0352783203125 C 7.157455444335938 40.95224380493164 8.924556732177734 43.57278823852539 11.17587661743164 45.82411193847656 C 13.42721176147461 48.07544326782227 16.04775619506836 49.84253311157227 18.9647216796875 51.07630920410156 C 21.98262405395508 52.35277938842773 25.19075584411621 53 28.5 53 C 31.80924415588379 53 35.01736450195312 52.35277938842773 38.0352783203125 51.07630920410156 C 40.95224380493164 49.84253311157227 43.57278823852539 48.07544326782227 45.82411193847656 45.82411193847656 C 48.07544326782227 43.57278823852539 49.84253311157227 40.95224380493164 51.07630920410156 38.0352783203125 C 52.35277938842773 35.01736450195312 53 31.80924415588379 53 28.5 C 53 25.19075584411621 52.35277938842773 21.98262405395508 51.07630920410156 18.9647216796875 C 49.84253311157227 16.04775619506836 48.07544326782227 13.42721176147461 45.82411193847656 11.17587661743164 C 43.57278823852539 8.924556732177734 40.95224380493164 7.157455444335938 38.0352783203125 5.923690795898438 C 35.01736450195312 4.647220611572266 31.80924415588379 4 28.5 4 M 28.5 0 C 44.2401123046875 0 57 12.7598762512207 57 28.5 C 57 44.2401123046875 44.2401123046875 57 28.5 57 C 12.7598762512207 57 0 44.2401123046875 0 28.5 C 0 12.7598762512207 12.7598762512207 0 28.5 0 Z" stroke="none" fill="#2b2c2f"/>
        </g>
        <g id="Path_86-7" data-name="Path 86" transform="translate(648.568 197.748) rotate(6)" fill="none" opacity="0.7">
          <path d="M28.5,0A28.5,28.5,0,1,1,0,28.5,28.5,28.5,0,0,1,28.5,0Z" stroke="none"/>
          <path d="M 28.5 4 C 25.19075584411621 4 21.98262405395508 4.647220611572266 18.9647216796875 5.923690795898438 C 16.04775619506836 7.157455444335938 13.42721176147461 8.924556732177734 11.17587661743164 11.17587661743164 C 8.924556732177734 13.42721176147461 7.157455444335938 16.04775619506836 5.923690795898438 18.9647216796875 C 4.647220611572266 21.98262405395508 4 25.19075584411621 4 28.5 C 4 31.80924415588379 4.647220611572266 35.01736450195312 5.923690795898438 38.0352783203125 C 7.157455444335938 40.95224380493164 8.924556732177734 43.57278823852539 11.17587661743164 45.82411193847656 C 13.42721176147461 48.07544326782227 16.04775619506836 49.84253311157227 18.9647216796875 51.07630920410156 C 21.98262405395508 52.35277938842773 25.19075584411621 53 28.5 53 C 31.80924415588379 53 35.01736450195312 52.35277938842773 38.0352783203125 51.07630920410156 C 40.95224380493164 49.84253311157227 43.57278823852539 48.07544326782227 45.82411193847656 45.82411193847656 C 48.07544326782227 43.57278823852539 49.84253311157227 40.95224380493164 51.07630920410156 38.0352783203125 C 52.35277938842773 35.01736450195312 53 31.80924415588379 53 28.5 C 53 25.19075584411621 52.35277938842773 21.98262405395508 51.07630920410156 18.9647216796875 C 49.84253311157227 16.04775619506836 48.07544326782227 13.42721176147461 45.82411193847656 11.17587661743164 C 43.57278823852539 8.924556732177734 40.95224380493164 7.157455444335938 38.0352783203125 5.923690795898438 C 35.01736450195312 4.647220611572266 31.80924415588379 4 28.5 4 M 28.5 0 C 44.2401123046875 0 57 12.7598762512207 57 28.5 C 57 44.2401123046875 44.2401123046875 57 28.5 57 C 12.7598762512207 57 0 44.2401123046875 0 28.5 C 0 12.7598762512207 12.7598762512207 0 28.5 0 Z" stroke="none" fill="#2b2c2f"/>
        </g>
        <g id="Path_86-8" data-name="Path 86" transform="translate(683.377 201.406) rotate(6)" fill="none" opacity="0.8">
          <path d="M28.5,0A28.5,28.5,0,1,1,0,28.5,28.5,28.5,0,0,1,28.5,0Z" stroke="none"/>
          <path d="M 28.5 4 C 25.19075584411621 4 21.98262405395508 4.647220611572266 18.9647216796875 5.923690795898438 C 16.04775619506836 7.157455444335938 13.42721176147461 8.924556732177734 11.17587661743164 11.17587661743164 C 8.924556732177734 13.42721176147461 7.157455444335938 16.04775619506836 5.923690795898438 18.9647216796875 C 4.647220611572266 21.98262405395508 4 25.19075584411621 4 28.5 C 4 31.80924415588379 4.647220611572266 35.01736450195312 5.923690795898438 38.0352783203125 C 7.157455444335938 40.95224380493164 8.924556732177734 43.57278823852539 11.17587661743164 45.82411193847656 C 13.42721176147461 48.07544326782227 16.04775619506836 49.84253311157227 18.9647216796875 51.07630920410156 C 21.98262405395508 52.35277938842773 25.19075584411621 53 28.5 53 C 31.80924415588379 53 35.01736450195312 52.35277938842773 38.0352783203125 51.07630920410156 C 40.95224380493164 49.84253311157227 43.57278823852539 48.07544326782227 45.82411193847656 45.82411193847656 C 48.07544326782227 43.57278823852539 49.84253311157227 40.95224380493164 51.07630920410156 38.0352783203125 C 52.35277938842773 35.01736450195312 53 31.80924415588379 53 28.5 C 53 25.19075584411621 52.35277938842773 21.98262405395508 51.07630920410156 18.9647216796875 C 49.84253311157227 16.04775619506836 48.07544326782227 13.42721176147461 45.82411193847656 11.17587661743164 C 43.57278823852539 8.924556732177734 40.95224380493164 7.157455444335938 38.0352783203125 5.923690795898438 C 35.01736450195312 4.647220611572266 31.80924415588379 4 28.5 4 M 28.5 0 C 44.2401123046875 0 57 12.7598762512207 57 28.5 C 57 44.2401123046875 44.2401123046875 57 28.5 57 C 12.7598762512207 57 0 44.2401123046875 0 28.5 C 0 12.7598762512207 12.7598762512207 0 28.5 0 Z" stroke="none" fill="#2b2c2f"/>
        </g>
        <g id="Path_86-9" data-name="Path 86" transform="translate(718.185 205.065) rotate(6)" fill="none" opacity="0.9">
          <path d="M28.5,0A28.5,28.5,0,1,1,0,28.5,28.5,28.5,0,0,1,28.5,0Z" stroke="none"/>
          <path d="M 28.5 4 C 25.19075584411621 4 21.98262405395508 4.647220611572266 18.9647216796875 5.923690795898438 C 16.04775619506836 7.157455444335938 13.42721176147461 8.924556732177734 11.17587661743164 11.17587661743164 C 8.924556732177734 13.42721176147461 7.157455444335938 16.04775619506836 5.923690795898438 18.9647216796875 C 4.647220611572266 21.98262405395508 4 25.19075584411621 4 28.5 C 4 31.80924415588379 4.647220611572266 35.01736450195312 5.923690795898438 38.0352783203125 C 7.157455444335938 40.95224380493164 8.924556732177734 43.57278823852539 11.17587661743164 45.82411193847656 C 13.42721176147461 48.07544326782227 16.04775619506836 49.84253311157227 18.9647216796875 51.07630920410156 C 21.98262405395508 52.35277938842773 25.19075584411621 53 28.5 53 C 31.80924415588379 53 35.01736450195312 52.35277938842773 38.0352783203125 51.07630920410156 C 40.95224380493164 49.84253311157227 43.57278823852539 48.07544326782227 45.82411193847656 45.82411193847656 C 48.07544326782227 43.57278823852539 49.84253311157227 40.95224380493164 51.07630920410156 38.0352783203125 C 52.35277938842773 35.01736450195312 53 31.80924415588379 53 28.5 C 53 25.19075584411621 52.35277938842773 21.98262405395508 51.07630920410156 18.9647216796875 C 49.84253311157227 16.04775619506836 48.07544326782227 13.42721176147461 45.82411193847656 11.17587661743164 C 43.57278823852539 8.924556732177734 40.95224380493164 7.157455444335938 38.0352783203125 5.923690795898438 C 35.01736450195312 4.647220611572266 31.80924415588379 4 28.5 4 M 28.5 0 C 44.2401123046875 0 57 12.7598762512207 57 28.5 C 57 44.2401123046875 44.2401123046875 57 28.5 57 C 12.7598762512207 57 0 44.2401123046875 0 28.5 C 0 12.7598762512207 12.7598762512207 0 28.5 0 Z" stroke="none" fill="#2b2c2f"/>
        </g>
        <g id="Path_86-10" data-name="Path 86" transform="translate(752.993 208.723) rotate(6)" fill="none">
          <path d="M28.5,0A28.5,28.5,0,1,1,0,28.5,28.5,28.5,0,0,1,28.5,0Z" stroke="none"/>
          <path d="M 28.5 4 C 25.19075584411621 4 21.98262405395508 4.647220611572266 18.9647216796875 5.923690795898438 C 16.04775619506836 7.157455444335938 13.42721176147461 8.924556732177734 11.17587661743164 11.17587661743164 C 8.924556732177734 13.42721176147461 7.157455444335938 16.04775619506836 5.923690795898438 18.9647216796875 C 4.647220611572266 21.98262405395508 4 25.19075584411621 4 28.5 C 4 31.80924415588379 4.647220611572266 35.01736450195312 5.923690795898438 38.0352783203125 C 7.157455444335938 40.95224380493164 8.924556732177734 43.57278823852539 11.17587661743164 45.82411193847656 C 13.42721176147461 48.07544326782227 16.04775619506836 49.84253311157227 18.9647216796875 51.07630920410156 C 21.98262405395508 52.35277938842773 25.19075584411621 53 28.5 53 C 31.80924415588379 53 35.01736450195312 52.35277938842773 38.0352783203125 51.07630920410156 C 40.95224380493164 49.84253311157227 43.57278823852539 48.07544326782227 45.82411193847656 45.82411193847656 C 48.07544326782227 43.57278823852539 49.84253311157227 40.95224380493164 51.07630920410156 38.0352783203125 C 52.35277938842773 35.01736450195312 53 31.80924415588379 53 28.5 C 53 25.19075584411621 52.35277938842773 21.98262405395508 51.07630920410156 18.9647216796875 C 49.84253311157227 16.04775619506836 48.07544326782227 13.42721176147461 45.82411193847656 11.17587661743164 C 43.57278823852539 8.924556732177734 40.95224380493164 7.157455444335938 38.0352783203125 5.923690795898438 C 35.01736450195312 4.647220611572266 31.80924415588379 4 28.5 4 M 28.5 0 C 44.2401123046875 0 57 12.7598762512207 57 28.5 C 57 44.2401123046875 44.2401123046875 57 28.5 57 C 12.7598762512207 57 0 44.2401123046875 0 28.5 C 0 12.7598762512207 12.7598762512207 0 28.5 0 Z" stroke="none" fill="#2b2c2f"/>
        </g>
      </g>
    </g>
  </g>
</svg>
