<svg xmlns="http://www.w3.org/2000/svg" width="447.105" height="229.038" viewBox="0 0 447.105 229.038">
  <g id="Group_679" data-name="Group 679" transform="translate(-746.447 -3692.527)">
    <g id="Group_25" data-name="Group 25" transform="translate(-439.07 211.925) rotate(-7)">
      <g id="Group_24" data-name="Group 24" transform="translate(340.78 3471.825)">
        <g id="Group_23" data-name="Group 23">
          <path id="Path_49" data-name="Path 49" d="M15.747,0h397.1c8.7,0,15.747,5.513,15.747,12.313V165.821c0,6.8-7.05,12.313-15.747,12.313H15.747C7.05,178.134,0,172.621,0,165.821V12.313C0,5.513,7.05,0,15.747,0Z" transform="translate(405.357 179.154)" fill="#e07264"/>
          <text id="Wanna_THINK_OUTSIDE_THE_BOX_" data-name="Wanna
THINK OUTSIDE
THE BOX?" transform="translate(430.863 226.221)" fill="#2b2c2f" stroke="#2e3034" stroke-width="2" font-size="46" font-family="Gilroy-ExtraBold, Gilroy" font-weight="800" letter-spacing="0.035em"><tspan x="0" y="0">WANNA</tspan><tspan x="0" y="56">THINK OUTSIDE</tspan><tspan x="0" y="112">THE BOX?</tspan></text>
          <rect id="Rectangle_14" data-name="Rectangle 14" width="11" height="44" transform="translate(679.084 190.262)" fill="#2e3034"/>
          <rect id="Rectangle_15" data-name="Rectangle 15" width="25" height="44" transform="translate(697.084 190.262)" fill="#2e3034"/>
          <rect id="Rectangle_16" data-name="Rectangle 16" width="50" height="44" transform="translate(729.084 190.262)" fill="#2e3034"/>
        </g>
      </g>
    </g>
    <text id="LETS_CHAT_" data-name="LETS CHAT!" transform="translate(1026.58 3856.111) rotate(-7)" fill="#2e3034" stroke="#2e3034" stroke-width="2" font-size="33" font-family="Greathy" letter-spacing="0.035em"><tspan x="0" y="0">LETS CHAT!</tspan></text>
    <path id="Path_91" data-name="Path 91" d="M1034.019,3871.188c130.767-22.009,134.857-25.712,124-17.906s-115.873,17.992-117.9,24.1c-1.528,4.6,56.314-5.34,87.023-10.455,9.712-1.618,17.637-1.862,18.376-2.078" transform="translate(0.066 -3.072)" fill="none" stroke="#2e3034" stroke-linecap="round" stroke-width="4"/>
  </g>
</svg>
