<svg xmlns="http://www.w3.org/2000/svg" xmlns:xlink="http://www.w3.org/1999/xlink" width="385.389" height="385.389" viewBox="0 0 385.389 385.389">
  <defs>
    <clipPath id="clip-path">
      <rect id="Rectangle_9" data-name="Rectangle 9" width="240" height="234" transform="translate(307.108 458)" stroke="#000" stroke-width="1"/>
    </clipPath>
    <clipPath id="clip-path-2">
      <rect id="Rectangle_10" data-name="Rectangle 10" width="240" height="234" transform="translate(0 0)" stroke="#000" stroke-width="1"/>
    </clipPath>
  </defs>
  <g id="Group_8" data-name="Group 8" transform="translate(203.151 -524.819) rotate(25)">
    <g id="Group_7" data-name="Group 7">
      <g id="Group_6" data-name="Group 6" transform="translate(17 -19.421)">
        <circle id="Ellipse_1" data-name="Ellipse 1" cx="145" cy="145" r="145" transform="translate(131.757 529.128)" fill="#eacc46"/>
        <path id="Subtraction_1" data-name="Subtraction 1" d="M71,142a70.668,70.668,0,0,1-39.7-12.126A71.208,71.208,0,0,1,5.58,98.636,70.906,70.906,0,0,1,12.126,31.3,71.208,71.208,0,0,1,43.364,5.58,70.906,70.906,0,0,1,110.7,12.126a71.208,71.208,0,0,1,25.724,31.238,70.906,70.906,0,0,1-6.546,67.333,71.208,71.208,0,0,1-31.238,25.724A70.555,70.555,0,0,1,71,142ZM35.5,80.53a4.38,4.38,0,0,0-2.178,1.361A3.827,3.827,0,0,0,32,84.642a3.076,3.076,0,0,0,1.182,2.219c1.086.98,11.854,6.826,21.4,11.844S74.75,109.12,75.524,109.12c.882,0,11.575-5.438,21.136-10.491C106.549,93.4,116.983,87.673,118,86.657a3.2,3.2,0,0,0,.86-2.9,3.687,3.687,0,0,0-2.153-2.684,1.773,1.773,0,0,0-.722-.144c-1.741,0-5.878,2.076-20.243,9.741-10.472,5.572-19.73,10.279-20.218,10.279-.469,0-9.343-4.46-20.081-10.211S35.9,80.53,35.5,80.53Zm0-14.3A4.231,4.231,0,0,0,32.98,67.6a2.513,2.513,0,0,0-.613,3.2c.551,1.515,4.346,3.812,21.374,12.933,10.425,5.523,21.2,11.1,21.783,11.1s11.358-5.573,21.783-11.1c17.029-9.122,20.824-11.418,21.375-12.933a2.513,2.513,0,0,0-.613-3.2,4.231,4.231,0,0,0-2.518-1.362c-.77,0-10.154,4.676-20.49,10.211-10.573,5.63-19.337,10.21-19.536,10.21S66.74,82.172,55.987,76.446C45.651,70.911,36.268,66.235,35.5,66.235ZM75.319,32.88c-.85.071-10.774,4.207-21.238,8.85-11.276,5.105-20.318,9.495-21.034,10.21a2.461,2.461,0,0,0-.749,3.131c.537,1.477,4.284,3.737,21.1,12.73,11.26,6.005,21.184,10.891,22.123,10.891S86.387,73.806,97.647,67.8c16.625-8.931,20.556-11.3,21.034-12.661a2.458,2.458,0,0,0-.545-3.131C116.662,50.4,77.446,32.88,75.319,32.88Z" transform="translate(205.757 603.128)" fill="#2e3034"/>
      </g>
      <g id="uxwordart" transform="translate(-137.108 76)" clip-path="url(#clip-path)">
        <path id="Path_54" data-name="Path 54" d="M549.49,461.841l3.693,2.078-6.978,12.4a3.673,3.673,0,0,0-.471,2.824,5.185,5.185,0,0,0,5.311,2.988,3.668,3.668,0,0,0,2.169-1.867l6.978-12.4,3.721,2.094-7.145,12.7a6.927,6.927,0,0,1-4.707,3.634,9.706,9.706,0,0,1-10.379-5.84,6.929,6.929,0,0,1,.662-5.91Z" transform="translate(-76.706 -1.258)" fill="#2e3034" stroke="#2e3034" stroke-width="1" fill-rule="evenodd"/>
        <text id="U" transform="translate(464.591 479.931)" fill="rgba(0,0,0,0)" stroke="rgba(0,0,0,0)" stroke-width="3" font-size="22" font-family="ArialMT, Arial"><tspan x="0" y="0">U</tspan></text>
        <path id="Path_55" data-name="Path 55" d="M582.8,484.712a8.36,8.36,0,0,1,2.77,3.92,8.623,8.623,0,0,1,.147,4.734l-4.09-.664a4.324,4.324,0,0,0-1.449-4.779,3.268,3.268,0,0,0-2-.854,1.9,1.9,0,0,0-1.575.731,1.97,1.97,0,0,0-.389,1.82,11.907,11.907,0,0,0,1.657,3.13q.571.866.859,1.321t.745,1.288a8.374,8.374,0,0,1,.633,1.376,10.717,10.717,0,0,1,.322,1.342,4.284,4.284,0,0,1,.046,1.436,6.2,6.2,0,0,1-1.326,2.871,5.806,5.806,0,0,1-4.7,2.309,8.745,8.745,0,0,1-5.512-2.225,9.67,9.67,0,0,1-3.283-4.539,7.69,7.69,0,0,1,.079-4.987l4.178.656a4.864,4.864,0,0,0,1.763,5.714,4.293,4.293,0,0,0,2.447,1.161,2.045,2.045,0,0,0,2.019-2.765,15.753,15.753,0,0,0-1.956-3.375,22.576,22.576,0,0,1-1.356-2.227,10.587,10.587,0,0,1-.824-2.17,4.727,4.727,0,0,1-.022-2.394,6.033,6.033,0,0,1,1.237-2.346,5.8,5.8,0,0,1,4.582-2.309A7.576,7.576,0,0,1,582.8,484.712Z" transform="translate(-84.56 -8.15)" fill="#2e3034" stroke="#2e3034" stroke-width="1" fill-rule="evenodd"/>
        <text id="S" transform="translate(480.718 493.314)" fill="rgba(0,0,0,0)" stroke="rgba(0,0,0,0)" stroke-width="1" font-size="21" font-family="ArialMT, Arial"><tspan x="0" y="0">S</tspan></text>
        <path id="Path_56" data-name="Path 56" d="M598.219,499.565l8.842,9.855-3.039,2.727-5.991-6.677-3.431,3.078,5.475,6.1-2.993,2.686-5.475-6.1-3.615,3.244,6.094,6.792L591.047,524l-8.946-9.97Z" transform="translate(-90.07 -13.613)" fill="#2e3034" stroke="#2e3034" stroke-width="1" fill-rule="evenodd"/>
        <text id="E" transform="translate(492.031 505.137)" fill="rgba(0,0,0,0)" stroke="rgba(0,0,0,0)" stroke-width="1" font-size="22" font-family="ArialMT, Arial"><tspan x="0" y="0">E</tspan></text>
        <path id="Path_57" data-name="Path 57" d="M614.528,526.738l-5.384,3.467,2.378,3.693a2.718,2.718,0,0,0,1.915,1.232,3.246,3.246,0,0,0,2.381-.5,3.186,3.186,0,0,0,1.43-1.951,2.735,2.735,0,0,0-.342-2.245Zm1.045-5.749,4.689,7.282a7.183,7.183,0,0,1-2.133,9.946,6.59,6.59,0,0,1-3.753,1.056,7.17,7.17,0,0,1-3.813-1.151l-4.272,8.452L603.8,542.7l3.951-7.75L606,532.231l-6.321,4.069-2.311-3.589Z" transform="translate(-95.069 -20.629)" fill="#2e3034" stroke="#2e3034" stroke-width="1" fill-rule="evenodd"/>
        <text id="R" transform="translate(502.296 521.882)" fill="rgba(0,0,0,0)" stroke="rgba(0,0,0,0)" stroke-width="1" font-size="24" font-family="ArialMT, Arial"><tspan x="0" y="0">R</tspan></text>
        <path id="Path_58" data-name="Path 58" d="M636.508,560.475l4.433,12.476-3.848,1.367-3-8.453-4.343,1.543,2.744,7.724-3.789,1.346-2.744-7.724-4.576,1.626,3.055,8.6-3.848,1.367L616.1,567.725Z" transform="translate(-101.206 -33.561)" fill="#2e3034" stroke="#2e3034" stroke-width="1" fill-rule="evenodd"/>
        <text id="E-2" data-name="E" transform="translate(514.898 542.145)" fill="rgba(0,0,0,0)" stroke="rgba(0,0,0,0)" stroke-width="1" font-size="18" font-family="ArialMT, Arial"><tspan x="0" y="0">E</tspan></text>
        <path id="Path_59" data-name="Path 59" d="M644.547,585.455l.868,4.746-5.681,4.975,7.073,2.633.868,4.747-11.486-4.276-9.749,8.537-.874-4.777,6.19-5.41-7.7-2.867-.868-4.747,12.122,4.513Z" transform="translate(-103.525 -41.742)" fill="#2e3034" stroke="#2e3034" stroke-width="1" fill-rule="evenodd"/>
        <text id="X" transform="translate(519.659 560.903)" fill="rgba(0,0,0,0)" stroke="rgba(0,0,0,0)" stroke-width="1" font-size="20" font-family="ArialMT, Arial"><tspan x="0" y="0">X</tspan></text>
        <path id="Path_60" data-name="Path 60" d="M645.71,623.345l-6.558.091.053,3.8a2.984,2.984,0,0,0,.975,2.245,3.51,3.51,0,0,0,4.686-.065,3.008,3.008,0,0,0,.9-2.271Zm3.93-4.324.113,8.073a7.2,7.2,0,0,1-2.03,5.288,7.318,7.318,0,0,1-10.331.144,7.2,7.2,0,0,1-2.177-5.229l-.053-3.8-7.114.1-.059-4.269Z" transform="translate(-105.098 -52.735)" fill="#2e3034" stroke="#2e3034" stroke-width="1" fill-rule="evenodd"/>
        <text id="P" transform="translate(522.89 576.786)" fill="rgba(0,0,0,0)" stroke="rgba(0,0,0,0)" stroke-width="1" font-size="12" font-family="ArialMT, Arial"><tspan x="0" y="0">P</tspan></text>
        <path id="Path_61" data-name="Path 61" d="M648.387,648.488,646.518,661.6l-4.042-.576,1.266-8.882-4.563-.65-1.157,8.116-3.981-.568,1.157-8.116-4.808-.685-1.289,9.034-4.042-.576,1.891-13.261Z" transform="translate(-104.139 -61.385)" fill="#2e3034" stroke="#2e3034" stroke-width="1" fill-rule="evenodd"/>
        <text id="E-3" data-name="E" transform="translate(520.92 597.396)" fill="rgba(0,0,0,0)" stroke="rgba(0,0,0,0)" stroke-width="1" font-size="15" font-family="ArialMT, Arial"><tspan x="0" y="0">E</tspan></text>
        <path id="Path_62" data-name="Path 62" d="M637.594,677.573l-6.113-1.906-1.308,4.194a2.72,2.72,0,0,0,.284,2.26,3.244,3.244,0,0,0,1.913,1.5,3.19,3.19,0,0,0,2.413-.155,2.738,2.738,0,0,0,1.5-1.7Zm5.081-2.887-2.579,8.269a7.183,7.183,0,0,1-9,4.745,6.585,6.585,0,0,1-3.217-2.2,7.162,7.162,0,0,1-1.564-3.662l-9.224,2.145,1.372-4.4,8.48-1.941.962-3.086-7.176-2.238L622,668.239Z" transform="translate(-101.53 -68.854)" fill="#2e3034" stroke="#2e3034" stroke-width="1" fill-rule="evenodd"/>
        <text id="R-2" data-name="R" transform="translate(515.564 614.557)" fill="rgba(0,0,0,0)" stroke="rgba(0,0,0,0)" stroke-width="1" font-size="18" font-family="ArialMT, Arial"><tspan x="0" y="0">R</tspan></text>
        <path id="Path_63" data-name="Path 63" d="M634.394,702.89l-1.765,3.887-19.715-8.957,1.766-3.886Z" transform="translate(-100.161 -77.27)" fill="#2e3034" stroke="#2e3034" stroke-width="1" fill-rule="evenodd"/>
        <text id="I" transform="translate(512.752 623.47)" fill="rgba(0,0,0,0)" stroke="rgba(0,0,0,0)" stroke-width="1" font-size="8" font-family="ArialMT, Arial"><tspan x="0" y="0">I</tspan></text>
        <path id="Path_64" data-name="Path 64" d="M626.1,715.478l-6.788,11.368-3.506-2.093,4.6-7.7-3.958-2.363-4.2,7.038-3.453-2.062,4.2-7.038-4.17-2.49-4.679,7.835-3.506-2.093,6.867-11.5Z" transform="translate(-96.141 -80.689)" fill="#2e3034" stroke="#2e3034" stroke-width="1" fill-rule="evenodd"/>
        <text id="E-4" data-name="E" transform="translate(504.496 642.173)" fill="rgba(0,0,0,0)" stroke="rgba(0,0,0,0)" stroke-width="1" font-size="21" font-family="ArialMT, Arial"><tspan x="0" y="0">E</tspan></text>
        <path id="Path_65" data-name="Path 65" d="M610.1,738.148l-2.1,2.469-16.062-1.492,10.039,8.557-2.769,3.249-16.48-14.046,2.107-2.472,16.1,1.526-10.076-8.589,2.769-3.249Z" transform="translate(-90.274 -87.149)" fill="#2e3034" stroke="#2e3034" stroke-width="1" fill-rule="evenodd"/>
        <text id="N" transform="translate(492.451 659.219)" fill="rgba(0,0,0,0)" stroke="rgba(0,0,0,0)" stroke-width="1" font-size="25" font-family="ArialMT, Arial"><tspan x="0" y="0">N</tspan></text>
        <path id="Path_66" data-name="Path 66" d="M579.174,771.663a11.027,11.027,0,0,1-5.109,2.3,10.076,10.076,0,0,1-5.358-.508l1.558-3.96a5.719,5.719,0,0,0,3.206.358,7.408,7.408,0,0,0,5.884-6.147,7.746,7.746,0,0,0-6.363-8.022,6.791,6.791,0,0,0-5.217,1.611,6.885,6.885,0,0,0-2.12,2.728,5.538,5.538,0,0,0-.388,3.17l-4.21.615a10.11,10.11,0,0,1,.713-5.324,11.014,11.014,0,0,1,3.41-4.461,10.829,10.829,0,0,1,8.344-2.473,11.686,11.686,0,0,1,9.968,12.566A10.859,10.859,0,0,1,579.174,771.663Z" transform="translate(-83.147 -96.109)" fill="#2e3034" stroke="#2e3034" stroke-width="1" fill-rule="evenodd"/>
        <text id="C" transform="translate(477.815 673.995)" fill="rgba(0,0,0,0)" stroke="rgba(0,0,0,0)" stroke-width="1" font-size="21" font-family="ArialMT, Arial"><tspan x="0" y="0">C</tspan></text>
        <path id="Path_67" data-name="Path 67" d="M558.633,784.555l-11.65,6.292-1.941-3.593,7.894-4.264-2.191-4.056-7.213,3.9-1.911-3.539,7.212-3.9-2.308-4.273L538.5,775.46l-1.941-3.593,11.785-6.366Z" transform="translate(-75.154 -100.708)" fill="#2e3034" stroke="#2e3034" stroke-width="1" fill-rule="evenodd"/>
        <text id="E-5" data-name="E" transform="translate(461.402 684.106)" fill="rgba(0,0,0,0)" stroke="rgba(0,0,0,0)" stroke-width="1" font-size="22" font-family="ArialMT, Arial"><tspan x="0" y="0">E</tspan></text>
      </g>
    </g>
    <g id="uxwordart-2" data-name="uxwordart" transform="translate(170 534)" clip-path="url(#clip-path-2)">
      <path id="Path_68" data-name="Path 68" d="M555.72,486.458l-3.693-2.078,6.978-12.4a3.673,3.673,0,0,0,.471-2.824,5.185,5.185,0,0,0-5.311-2.988A3.668,3.668,0,0,0,552,468.035l-6.978,12.4-3.721-2.094,7.145-12.7a6.927,6.927,0,0,1,4.707-3.634,9.706,9.706,0,0,1,10.379,5.84,6.929,6.929,0,0,1-.662,5.91Z" transform="translate(-481.396 -255.041)" fill="#2e3034" stroke="#2e3034" stroke-width="1" fill-rule="evenodd"/>
      <text id="U-2" data-name="U" transform="translate(82.517 212.069) rotate(180)" fill="rgba(0,0,0,0)" stroke="rgba(0,0,0,0)" stroke-width="3" font-size="22" font-family="ArialMT, Arial"><tspan x="0" y="0">U</tspan></text>
      <path id="Path_69" data-name="Path 69" d="M568.455,502.865a8.36,8.36,0,0,1-2.77-3.92,8.623,8.623,0,0,1-.147-4.734l4.09.664a4.324,4.324,0,0,0,1.449,4.779,3.268,3.268,0,0,0,2,.854,1.9,1.9,0,0,0,1.575-.731,1.97,1.97,0,0,0,.389-1.82,11.907,11.907,0,0,0-1.657-3.13q-.571-.866-.859-1.321t-.745-1.288a8.374,8.374,0,0,1-.633-1.376,10.717,10.717,0,0,1-.322-1.342,4.284,4.284,0,0,1-.046-1.436,6.2,6.2,0,0,1,1.326-2.871,5.806,5.806,0,0,1,4.7-2.309,8.745,8.745,0,0,1,5.512,2.225,9.67,9.67,0,0,1,3.283,4.539,7.69,7.69,0,0,1-.079,4.987l-4.178-.656a4.864,4.864,0,0,0-1.763-5.714,4.293,4.293,0,0,0-2.447-1.161,2.045,2.045,0,0,0-2.019,2.765,15.753,15.753,0,0,0,1.956,3.375,22.576,22.576,0,0,1,1.356,2.227,10.587,10.587,0,0,1,.824,2.17,4.727,4.727,0,0,1,.022,2.394,6.033,6.033,0,0,1-1.237,2.346,5.8,5.8,0,0,1-4.582,2.309A7.576,7.576,0,0,1,568.455,502.865Z" transform="translate(-519.587 -287.427)" fill="#2e3034" stroke="#2e3034" stroke-width="1" fill-rule="evenodd"/>
      <text id="S-2" data-name="S" transform="translate(66.39 198.686) rotate(180)" fill="rgba(0,0,0,0)" stroke="rgba(0,0,0,0)" stroke-width="1" font-size="21" font-family="ArialMT, Arial"><tspan x="0" y="0">S</tspan></text>
      <path id="Path_70" data-name="Path 70" d="M590.943,524l-8.842-9.855,3.039-2.727,5.991,6.677,3.431-3.078-5.475-6.1,2.993-2.686,5.475,6.1,3.615-3.244-6.094-6.792,3.039-2.727,8.946,9.97Z" transform="translate(-551.984 -317.948)" fill="#2e3034" stroke="#2e3034" stroke-width="1" fill-rule="evenodd"/>
      <text id="E-6" data-name="E" transform="translate(55.077 186.863) rotate(180)" fill="rgba(0,0,0,0)" stroke="rgba(0,0,0,0)" stroke-width="1" font-size="22" font-family="ArialMT, Arial"><tspan x="0" y="0">E</tspan></text>
      <path id="Path_71" data-name="Path 71" d="M604.269,540.825l5.384-3.467-2.378-3.693a2.718,2.718,0,0,0-1.915-1.232,3.246,3.246,0,0,0-2.381.5,3.186,3.186,0,0,0-1.43,1.951,2.735,2.735,0,0,0,.342,2.245Zm-1.045,5.749-4.689-7.282a7.183,7.183,0,0,1,2.133-9.946,6.59,6.59,0,0,1,3.753-1.056,7.17,7.17,0,0,1,3.813,1.151l4.272-8.452L615,524.865l-3.951,7.75,1.75,2.717,6.321-4.069,2.311,3.589Z" transform="translate(-576.62 -354.934)" fill="#2e3034" stroke="#2e3034" stroke-width="1" fill-rule="evenodd"/>
      <text id="R-3" data-name="R" transform="translate(44.812 170.118) rotate(180)" fill="rgba(0,0,0,0)" stroke="rgba(0,0,0,0)" stroke-width="1" font-size="24" font-family="ArialMT, Arial"><tspan x="0" y="0">R</tspan></text>
      <path id="Path_72" data-name="Path 72" d="M620.537,580.346,616.1,567.87l3.848-1.367,3,8.453,4.343-1.543-2.744-7.724,3.789-1.346,2.744,7.724,4.576-1.626-3.055-8.6,3.848-1.367,4.484,12.621Z" transform="translate(-608.731 -415.26)" fill="#2e3034" stroke="#2e3034" stroke-width="1" fill-rule="evenodd"/>
      <text id="E-7" data-name="E" transform="translate(32.21 149.855) rotate(180)" fill="rgba(0,0,0,0)" stroke="rgba(0,0,0,0)" stroke-width="1" font-size="18" font-family="ArialMT, Arial"><tspan x="0" y="0">E</tspan></text>
      <path id="Path_73" data-name="Path 73" d="M626.312,606.818l-.868-4.746,5.681-4.975-7.073-2.633-.868-4.747,11.486,4.276,9.749-8.537.874,4.777-6.19,5.41,7.7,2.867.868,4.747-12.122-4.513Z" transform="translate(-620.226 -458.531)" fill="#2e3034" stroke="#2e3034" stroke-width="1" fill-rule="evenodd"/>
      <text id="X-2" data-name="X" transform="translate(27.449 131.097) rotate(180)" fill="rgba(0,0,0,0)" stroke="rgba(0,0,0,0)" stroke-width="1" font-size="20" font-family="ArialMT, Arial"><tspan x="0" y="0">X</tspan></text>
      <path id="Path_74" data-name="Path 74" d="M632.032,630.265l6.558-.091-.053-3.8a2.984,2.984,0,0,0-.975-2.245,3.51,3.51,0,0,0-4.686.065,3.008,3.008,0,0,0-.9,2.271Zm-3.93,4.324-.113-8.073a7.2,7.2,0,0,1,2.03-5.288,7.318,7.318,0,0,1,10.331-.144,7.2,7.2,0,0,1,2.177,5.229l.053,3.8,7.114-.1.059,4.269Z" transform="translate(-625.536 -508.875)" fill="#2e3034" stroke="#2e3034" stroke-width="1" fill-rule="evenodd"/>
      <text id="P-2" data-name="P" transform="translate(24.218 115.214) rotate(180)" fill="rgba(0,0,0,0)" stroke="rgba(0,0,0,0)" stroke-width="1" font-size="12" font-family="ArialMT, Arial"><tspan x="0" y="0">P</tspan></text>
      <path id="Path_75" data-name="Path 75" d="M625.059,658.539l1.869-13.108,4.042.576-1.266,8.882,4.563.65,1.157-8.116,3.981.568-1.157,8.116,4.808.685,1.289-9.034,4.042.576L646.5,661.6Z" transform="translate(-622.199 -553.642)" fill="#2e3034" stroke="#2e3034" stroke-width="1" fill-rule="evenodd"/>
      <text id="E-8" data-name="E" transform="translate(26.188 94.604) rotate(180)" fill="rgba(0,0,0,0)" stroke="rgba(0,0,0,0)" stroke-width="1" font-size="15" font-family="ArialMT, Arial"><tspan x="0" y="0">E</tspan></text>
      <path id="Path_76" data-name="Path 76" d="M622.175,678.71l6.113,1.906,1.308-4.194a2.72,2.72,0,0,0-.284-2.26,3.244,3.244,0,0,0-1.913-1.5,3.19,3.19,0,0,0-2.413.155,2.738,2.738,0,0,0-1.5,1.7Zm-5.081,2.887,2.579-8.269a7.183,7.183,0,0,1,9-4.745,6.585,6.585,0,0,1,3.217,2.2,7.162,7.162,0,0,1,1.564,3.662l9.224-2.145-1.372,4.4-8.48,1.941-.962,3.086,7.176,2.238-1.271,4.075Z" transform="translate(-611.131 -595.428)" fill="#2e3034" stroke="#2e3034" stroke-width="1" fill-rule="evenodd"/>
      <text id="R-4" data-name="R" transform="translate(31.544 77.443) rotate(180)" fill="rgba(0,0,0,0)" stroke="rgba(0,0,0,0)" stroke-width="1" font-size="18" font-family="ArialMT, Arial"><tspan x="0" y="0">R</tspan></text>
      <path id="Path_77" data-name="Path 77" d="M612.913,697.821l1.765-3.887,19.715,8.957-1.766,3.886Z" transform="translate(-600.038 -631.442)" fill="#2e3034" stroke="#2e3034" stroke-width="1" fill-rule="evenodd"/>
      <text id="I-2" data-name="I" transform="translate(34.356 68.53) rotate(180)" fill="rgba(0,0,0,0)" stroke="rgba(0,0,0,0)" stroke-width="1" font-size="8" font-family="ArialMT, Arial"><tspan x="0" y="0">I</tspan></text>
      <path id="Path_78" data-name="Path 78" d="M600.637,715.744l6.788-11.368,3.506,2.093-4.6,7.7,3.958,2.363,4.2-7.038,3.453,2.062-4.2,7.038,4.17,2.49,4.679-7.835,3.506,2.093-6.867,11.5Z" transform="translate(-583.485 -658.532)" fill="#2e3034" stroke="#2e3034" stroke-width="1" fill-rule="evenodd"/>
      <text id="E-9" data-name="E" transform="translate(42.611 49.827) rotate(180)" fill="rgba(0,0,0,0)" stroke="rgba(0,0,0,0)" stroke-width="1" font-size="21" font-family="ArialMT, Arial"><tspan x="0" y="0">E</tspan></text>
      <path id="Path_79" data-name="Path 79" d="M582.725,736.884l2.1-2.469,16.062,1.492-10.039-8.557,2.769-3.249,16.48,14.046-2.107,2.472-16.1-1.526,10.076,8.589-2.769,3.249Z" transform="translate(-555.445 -695.883)" fill="#2e3034" stroke="#2e3034" stroke-width="1" fill-rule="evenodd"/>
      <text id="N-2" data-name="N" transform="translate(54.657 32.781) rotate(180)" fill="rgba(0,0,0,0)" stroke="rgba(0,0,0,0)" stroke-width="1" font-size="25" font-family="ArialMT, Arial"><tspan x="0" y="0">N</tspan></text>
      <path id="Path_80" data-name="Path 80" d="M565.347,753.906a11.027,11.027,0,0,1,5.109-2.3,10.076,10.076,0,0,1,5.358.508l-1.558,3.96a5.719,5.719,0,0,0-3.206-.358,7.408,7.408,0,0,0-5.884,6.147,7.746,7.746,0,0,0,6.363,8.022,6.791,6.791,0,0,0,5.217-1.611,6.885,6.885,0,0,0,2.12-2.728,5.538,5.538,0,0,0,.388-3.17l4.21-.615a10.11,10.11,0,0,1-.713,5.324,11.014,11.014,0,0,1-3.41,4.461A10.829,10.829,0,0,1,571,774.022a11.686,11.686,0,0,1-9.968-12.566A10.859,10.859,0,0,1,565.347,753.906Z" transform="translate(-514.267 -737.46)" fill="#2e3034" stroke="#2e3034" stroke-width="1" fill-rule="evenodd"/>
      <text id="C-2" data-name="C" transform="translate(69.293 18.005) rotate(180)" fill="rgba(0,0,0,0)" stroke="rgba(0,0,0,0)" stroke-width="1" font-size="21" font-family="ArialMT, Arial"><tspan x="0" y="0">C</tspan></text>
      <path id="Path_81" data-name="Path 81" d="M536.556,771.794l11.65-6.292,1.941,3.593-7.894,4.264,2.191,4.056,7.213-3.9,1.911,3.539-7.212,3.9,2.308,4.273,8.029-4.336,1.941,3.593-11.785,6.366Z" transform="translate(-472.927 -763.641)" fill="#2e3034" stroke="#2e3034" stroke-width="1" fill-rule="evenodd"/>
      <text id="E-10" data-name="E" transform="translate(85.705 7.894) rotate(180)" fill="rgba(0,0,0,0)" stroke="rgba(0,0,0,0)" stroke-width="1" font-size="22" font-family="ArialMT, Arial"><tspan x="0" y="0">E</tspan></text>
    </g>
    <circle id="Ellipse_3" data-name="Ellipse 3" cx="9.5" cy="9.5" r="9.5" transform="translate(284 530)" fill="#2e3034"/>
    <circle id="Ellipse_4" data-name="Ellipse 4" cx="9.5" cy="9.5" r="9.5" transform="translate(284 752)" fill="#2e3034"/>
  </g>
</svg>
