<svg xmlns="http://www.w3.org/2000/svg" width="464.342" height="301.367" viewBox="0 0 464.342 301.367">
  <g id="Group_4" data-name="Group 4" transform="matrix(0.995, 0.105, -0.105, 0.995, -352.01, -199.848)">
    <path id="Path_49" data-name="Path 49" d="M15.747,0h397.1c8.7,0,15.747,6.716,15.747,15V202c0,8.284-7.05,15-15.747,15H15.747C7.05,217,0,210.284,0,202V15C0,6.716,7.05,0,15.747,0Z" transform="matrix(0.995, 0.105, -0.105, 0.995, 415.841, 157.242)" fill="#a3d472"/>
    <text id="Mobile_Web_Development" data-name="Mobile &amp;
Web 
Development" transform="matrix(0.995, 0.105, -0.105, 0.995, 437.5, 225.5)" fill="#2b2c2f" stroke="#2e3034" stroke-width="2" font-size="53" font-family="Gilroy-ExtraBold, Gilroy" font-weight="800" letter-spacing="0.035em"><tspan x="0" y="0">MOBILE &amp;</tspan><tspan x="0" y="61">WEB </tspan><tspan x="0" y="122">DEVELOPMENT</tspan></text>
    <rect id="Rectangle_4" data-name="Rectangle 4" width="243.872" height="17" transform="matrix(0.995, 0.105, -0.105, 0.995, 571.03, 261.313)" fill="#2e3034"/>
    <rect id="Rectangle_5" data-name="Rectangle 5" width="243.07" height="9.781" transform="matrix(0.995, 0.105, -0.105, 0.995, 569.03, 283.996)" fill="#2e3034"/>
    <rect id="Rectangle_6" data-name="Rectangle 6" width="242" height="5" transform="matrix(0.995, 0.105, -0.105, 0.995, 566.925, 299.991)" fill="#2e3034"/>
    <path id="Path_50" data-name="Path 50" d="M28.5,0A28.5,28.5,0,1,1,0,28.5,28.5,28.5,0,0,1,28.5,0Z" transform="translate(736.015 212.197)" fill="#2e3034"/>
    <text id="_" data-name="&lt;/&gt;" transform="matrix(0.995, 0.105, -0.105, 0.995, 741.281, 248.576)" fill="#a3d472" font-size="30" font-family="Gilroy-ExtraBold, Gilroy" font-weight="800"><tspan x="0" y="0">&lt;</tspan><tspan y="0" font-family="Avenir-Black, Avenir">/</tspan><tspan y="0">&gt;</tspan></text>
  </g>
</svg>
